<svg id="svg" version="1.1" xmlns="http://www.w3.org/2000/svg" xmlns:xlink="http://www.w3.org/1999/xlink" width="400" height="400" viewBox="0, 0, 400,400"><g id="svgg"><path id="path0" d="M184.800 86.304 C 184.800 87.248,182.725 87.808,178.523 87.998 C 174.538 88.178,173.953 88.299,173.207 89.100 C 172.500 89.859,171.952 90.000,169.706 90.000 C 167.477 90.000,166.794 90.173,165.514 91.059 C 164.513 91.753,163.263 92.187,161.893 92.315 C 160.492 92.447,159.426 92.824,158.669 93.456 C 157.872 94.122,157.039 94.400,155.841 94.400 C 154.530 94.400,153.947 94.627,153.275 95.400 C 152.733 96.024,151.982 96.400,151.280 96.400 C 150.662 96.400,149.548 96.848,148.806 97.395 C 148.065 97.943,146.860 98.503,146.129 98.640 C 145.398 98.777,144.800 99.044,144.800 99.234 C 144.800 99.691,142.632 100.798,141.720 100.807 C 141.324 100.811,140.576 101.261,140.058 101.807 C 139.540 102.353,138.711 102.800,138.216 102.800 C 137.722 102.800,136.840 103.242,136.257 103.782 C 135.674 104.322,134.568 104.882,133.799 105.027 C 133.019 105.173,132.400 105.528,132.400 105.830 C 132.400 106.128,131.995 106.585,131.500 106.845 C 131.005 107.106,130.091 107.742,129.469 108.259 C 128.847 108.777,127.898 109.200,127.359 109.200 C 126.683 109.200,126.263 109.509,126.000 110.200 C 125.791 110.750,125.397 111.200,125.125 111.200 C 124.853 111.200,124.173 111.664,123.615 112.232 C 122.082 113.790,119.561 115.600,118.924 115.600 C 118.270 115.600,117.017 116.781,106.299 127.499 C 95.431 138.367,94.400 139.467,94.400 140.198 C 94.400 140.549,93.950 141.286,93.400 141.836 C 92.850 142.386,92.400 142.971,92.400 143.135 C 92.400 143.299,91.770 144.101,91.000 144.918 C 90.230 145.734,89.600 146.569,89.600 146.774 C 89.600 146.979,89.240 147.260,88.800 147.400 C 88.352 147.542,88.000 148.005,88.000 148.453 C 88.000 149.500,87.258 150.869,86.337 151.523 C 85.931 151.810,85.600 152.284,85.600 152.577 C 85.600 152.869,85.150 153.403,84.600 153.763 C 83.898 154.223,83.600 154.779,83.600 155.628 C 83.600 156.382,83.245 157.170,82.659 157.719 C 82.141 158.204,81.593 159.273,81.442 160.095 C 81.290 160.917,80.837 161.766,80.436 161.981 C 80.007 162.210,79.602 163.026,79.452 163.964 C 79.308 164.865,78.859 165.793,78.418 166.103 C 77.989 166.403,77.465 167.420,77.253 168.363 C 77.039 169.314,76.496 170.337,76.034 170.661 C 75.405 171.102,75.200 171.675,75.200 172.992 C 75.200 174.241,74.931 175.061,74.256 175.869 C 73.613 176.640,73.247 177.693,73.108 179.175 C 72.966 180.683,72.661 181.545,72.113 181.989 C 71.550 182.445,71.239 183.366,71.033 185.191 C 70.825 187.030,70.468 188.079,69.769 188.910 C 68.500 190.417,68.806 190.800,71.278 190.800 C 72.904 190.800,73.484 190.610,74.193 189.846 C 74.711 189.287,75.778 188.773,76.767 188.606 C 77.696 188.449,78.551 188.072,78.668 187.768 C 78.955 187.020,81.336 186.405,83.954 186.402 C 85.736 186.400,86.268 186.227,87.035 185.400 C 87.951 184.412,88.038 184.400,94.522 184.400 C 100.920 184.400,101.109 184.376,102.135 183.426 C 104.275 181.442,115.823 181.382,117.389 183.346 L 118.230 184.400 125.189 184.400 C 131.846 184.400,132.190 184.439,133.102 185.296 C 133.863 186.011,134.695 186.239,137.226 186.425 C 139.638 186.602,140.613 186.853,141.298 187.476 C 141.794 187.927,142.693 188.411,143.295 188.554 C 143.897 188.696,144.683 189.260,145.041 189.806 C 145.602 190.663,145.992 190.800,147.864 190.800 C 149.648 190.800,150.215 190.979,151.036 191.800 C 152.497 193.261,158.041 193.304,159.375 191.865 C 159.989 191.202,160.873 190.855,162.413 190.673 C 163.877 190.500,164.783 190.161,165.192 189.632 C 165.527 189.201,166.340 188.724,167.000 188.572 C 167.660 188.420,168.616 187.917,169.125 187.454 C 169.854 186.791,170.703 186.580,173.125 186.458 C 175.641 186.331,176.406 186.130,177.331 185.351 C 178.413 184.440,178.721 184.400,184.572 184.400 C 190.493 184.400,190.716 184.370,191.735 183.426 C 193.878 181.439,207.388 181.342,208.959 183.302 L 209.800 184.352 217.336 184.476 C 224.595 184.595,224.899 184.633,225.600 185.500 C 226.143 186.171,226.749 186.400,227.984 186.400 C 229.667 186.400,232.000 187.321,232.000 187.986 C 232.000 188.187,232.796 188.470,233.769 188.616 C 234.866 188.781,235.879 189.245,236.438 189.841 C 237.115 190.561,237.763 190.800,239.039 190.800 C 240.268 190.800,241.067 191.077,241.927 191.800 C 243.654 193.253,247.510 193.253,248.964 191.800 C 249.785 190.979,250.352 190.800,252.136 190.800 C 254.008 190.800,254.398 190.663,254.959 189.806 C 255.317 189.260,256.103 188.696,256.705 188.554 C 257.307 188.411,258.206 187.927,258.702 187.476 C 259.387 186.853,260.362 186.602,262.774 186.425 C 265.305 186.239,266.137 186.011,266.898 185.296 L 267.852 184.400 289.945 184.400 L 312.038 184.400 312.926 185.358 C 313.723 186.218,314.212 186.331,317.676 186.458 C 320.934 186.578,321.682 186.733,322.469 187.451 C 322.981 187.918,324.120 188.423,325.000 188.572 C 327.476 188.991,328.000 189.209,328.000 189.819 C 328.000 190.460,329.691 191.004,330.599 190.656 C 331.660 190.249,331.409 186.326,330.259 185.326 C 329.589 184.743,329.237 183.887,329.038 182.354 C 328.841 180.834,328.503 180.003,327.889 179.530 C 327.161 178.969,326.994 178.364,326.866 175.830 C 326.754 173.622,326.565 172.800,326.170 172.800 C 325.440 172.800,324.800 171.519,324.800 170.057 C 324.800 169.365,324.379 168.361,323.800 167.673 C 323.250 167.019,322.800 166.119,322.800 165.673 C 322.800 165.227,322.349 164.325,321.798 163.671 C 321.247 163.016,320.681 161.904,320.540 161.200 C 320.399 160.496,319.860 159.497,319.342 158.978 C 318.824 158.460,318.400 157.578,318.400 157.018 C 318.400 156.458,318.233 156.000,318.029 156.000 C 317.283 156.000,316.400 154.715,316.400 153.631 C 316.400 152.979,315.945 152.015,315.300 151.302 C 312.415 148.113,312.000 147.516,312.000 146.556 C 312.000 145.862,311.739 145.457,311.200 145.316 C 310.760 145.201,310.400 144.951,310.400 144.760 C 310.400 144.363,309.169 142.938,305.900 139.552 C 304.380 137.977,303.600 136.839,303.600 136.194 C 303.600 135.595,303.214 134.966,302.600 134.563 C 302.050 134.203,301.600 133.654,301.600 133.344 C 301.600 133.034,301.165 132.615,300.634 132.413 C 300.103 132.211,299.557 131.695,299.421 131.266 C 299.285 130.837,298.806 130.390,298.357 130.273 C 297.908 130.155,297.449 129.708,297.336 129.278 C 297.224 128.849,296.697 128.299,296.166 128.057 C 295.635 127.815,295.200 127.372,295.200 127.073 C 295.200 126.773,294.766 126.330,294.235 126.089 C 293.704 125.847,293.158 125.297,293.021 124.868 C 292.885 124.438,292.406 123.990,291.957 123.873 C 291.508 123.755,291.047 123.303,290.933 122.867 C 290.819 122.431,290.369 121.981,289.933 121.867 C 289.497 121.753,289.043 121.286,288.924 120.830 C 288.804 120.373,288.397 120.000,288.018 120.000 C 287.128 120.000,284.846 118.337,282.160 115.731 C 280.987 114.594,279.671 113.549,279.234 113.411 C 278.798 113.272,278.332 112.815,278.198 112.393 C 278.041 111.900,277.429 111.532,276.477 111.359 C 275.451 111.173,274.432 110.513,273.139 109.197 C 271.876 107.912,270.814 107.217,269.836 107.033 C 268.947 106.866,268.147 106.386,267.751 105.781 C 267.397 105.242,266.863 104.800,266.563 104.800 C 266.264 104.800,265.724 104.350,265.363 103.800 C 264.883 103.067,264.355 102.800,263.387 102.800 C 261.672 102.800,260.800 102.450,260.800 101.762 C 260.800 101.422,260.152 101.106,259.118 100.940 C 258.192 100.792,257.037 100.273,256.550 99.786 C 256.063 99.299,255.016 98.780,254.223 98.631 C 253.431 98.482,252.563 98.009,252.295 97.580 C 252.027 97.151,251.510 96.800,251.146 96.800 C 250.782 96.800,249.907 96.260,249.200 95.600 C 248.193 94.659,247.551 94.400,246.227 94.400 C 244.944 94.400,244.314 94.160,243.600 93.400 C 243.083 92.850,242.287 92.399,241.830 92.398 C 240.313 92.394,238.000 91.570,238.000 91.034 C 238.000 90.422,235.954 90.011,232.881 90.004 C 231.138 90.001,230.597 89.823,229.835 89.000 C 228.979 88.076,228.634 88.000,225.314 88.000 C 221.519 88.000,219.408 87.519,219.045 86.572 C 218.804 85.944,184.800 85.677,184.800 86.304 " stroke="none" fill="#076594" fill-rule="evenodd"></path><path id="path1" d="M197.056 65.216 C 193.812 67.656,193.200 69.085,193.200 74.220 C 193.200 77.335,192.028 78.206,187.328 78.586 C 185.388 78.743,182.630 79.128,181.200 79.441 C 179.770 79.755,177.520 80.193,176.200 80.416 C 172.008 81.124,164.355 83.166,159.600 84.847 C 157.070 85.741,154.280 86.684,153.400 86.943 C 149.998 87.943,130.832 97.591,128.937 99.257 C 128.532 99.614,127.819 100.021,127.353 100.163 C 126.887 100.305,126.184 100.776,125.791 101.210 C 125.398 101.645,124.903 102.000,124.691 102.000 C 124.479 102.000,123.715 102.495,122.994 103.100 C 122.273 103.705,120.916 104.650,119.979 105.200 C 119.043 105.750,117.070 107.190,115.597 108.400 C 114.123 109.610,112.145 111.140,111.200 111.800 C 108.537 113.661,93.194 129.065,90.881 132.200 C 89.745 133.740,88.407 135.477,87.908 136.061 C 85.796 138.528,85.050 139.527,83.610 141.814 C 82.774 143.141,81.799 144.468,81.445 144.763 C 81.090 145.057,80.800 145.491,80.800 145.727 C 80.800 146.121,80.342 146.887,78.164 150.142 C 76.339 152.868,70.000 165.090,70.000 165.882 C 70.000 166.107,69.650 166.737,69.222 167.281 C 68.794 167.825,68.228 169.154,67.965 170.235 C 67.701 171.316,67.289 172.560,67.051 173.000 C 66.396 174.206,64.465 179.884,63.786 182.600 C 63.456 183.920,62.829 185.843,62.393 186.874 C 61.957 187.905,61.600 189.255,61.600 189.875 C 61.600 190.494,61.150 193.215,60.600 195.921 C 59.118 203.212,59.425 205.371,61.655 203.349 C 62.485 202.596,64.604 201.399,67.200 200.218 C 67.970 199.867,68.870 199.401,69.200 199.182 C 69.530 198.963,70.430 198.511,71.200 198.178 C 71.970 197.844,73.340 197.218,74.244 196.786 C 75.148 196.354,76.138 195.998,76.444 195.996 C 76.750 195.994,77.919 195.564,79.043 195.041 C 80.167 194.518,81.877 193.958,82.843 193.797 C 83.809 193.637,85.140 193.226,85.800 192.885 C 86.460 192.544,89.340 191.849,92.200 191.340 C 95.060 190.831,98.210 190.240,99.200 190.025 C 102.082 189.400,118.283 189.504,121.689 190.168 C 123.290 190.481,126.220 191.028,128.200 191.384 C 131.743 192.022,136.474 193.336,140.800 194.884 C 143.127 195.717,144.810 196.461,150.555 199.198 C 155.053 201.341,156.585 201.257,161.200 198.613 C 165.719 196.024,175.789 192.571,182.200 191.412 C 184.180 191.054,186.921 190.557,188.292 190.309 C 191.184 189.784,192.486 190.225,193.148 191.953 C 193.411 192.640,193.523 215.086,193.475 257.200 L 193.400 321.400 192.180 324.400 C 185.762 340.176,167.621 344.585,155.700 333.266 C 154.325 331.960,153.200 330.719,153.200 330.508 C 153.200 330.297,152.847 329.804,152.415 329.414 C 151.983 329.023,151.419 328.065,151.162 327.284 C 150.904 326.504,150.377 325.310,149.990 324.633 C 149.564 323.888,149.176 322.054,149.010 320.000 C 148.527 314.062,145.998 310.993,141.600 311.010 C 138.171 311.024,134.795 314.043,134.799 317.091 C 134.801 318.906,136.468 328.172,136.972 329.169 C 137.258 329.736,137.724 330.920,138.006 331.800 C 138.288 332.680,138.867 333.850,139.291 334.400 C 139.716 334.950,140.663 336.359,141.396 337.530 C 143.331 340.626,148.477 345.886,150.819 347.163 C 157.048 350.559,158.936 351.307,164.600 352.617 C 167.826 353.363,174.785 353.330,177.800 352.554 C 179.120 352.214,181.280 351.667,182.600 351.338 C 183.920 351.009,185.270 350.501,185.600 350.210 C 185.930 349.918,186.859 349.408,187.665 349.075 C 188.471 348.742,189.461 348.168,189.865 347.799 C 190.269 347.429,191.584 346.514,192.786 345.764 C 195.176 344.273,199.344 340.099,200.583 337.955 C 201.014 337.210,201.884 335.700,202.518 334.600 C 203.152 333.500,204.329 330.800,205.135 328.600 L 206.600 324.600 206.800 258.332 L 207.000 192.064 207.970 191.032 C 209.031 189.903,209.765 189.803,212.669 190.391 C 213.731 190.606,216.220 191.068,218.200 191.418 C 220.180 191.767,222.880 192.399,224.200 192.821 C 232.498 195.474,234.411 196.175,236.005 197.147 C 236.772 197.614,237.691 197.998,238.046 197.999 C 238.401 197.999,239.179 198.383,239.773 198.850 C 240.368 199.318,241.933 200.037,243.252 200.447 L 245.650 201.193 249.525 199.360 C 251.656 198.351,254.030 197.202,254.800 196.806 C 255.570 196.411,256.830 195.960,257.600 195.804 C 258.370 195.649,259.450 195.235,260.000 194.884 C 264.018 192.324,279.828 189.590,290.600 189.592 C 298.701 189.595,300.579 189.772,308.400 191.270 C 313.216 192.193,319.109 193.894,320.600 194.791 C 321.260 195.189,322.430 195.640,323.200 195.795 C 324.476 196.052,327.082 197.129,330.200 198.690 C 333.135 200.159,338.261 202.886,338.889 203.313 C 340.521 204.423,341.123 200.095,340.016 195.203 C 339.792 194.211,339.337 192.218,339.004 190.774 C 338.672 189.330,338.400 187.672,338.400 187.089 C 338.400 186.506,338.031 185.094,337.580 183.950 C 337.129 182.806,336.507 180.864,336.196 179.635 C 335.886 178.406,335.073 175.870,334.389 174.000 C 333.705 172.130,332.770 169.520,332.311 168.200 C 331.852 166.880,331.144 165.371,330.738 164.846 C 330.332 164.321,330.000 163.707,330.000 163.482 C 330.000 163.132,328.674 160.428,323.767 150.769 C 323.309 149.868,322.724 149.000,322.467 148.841 C 321.962 148.529,319.200 144.098,319.200 143.601 C 319.200 143.434,318.922 143.068,318.583 142.786 C 318.244 142.504,317.119 141.008,316.083 139.460 C 315.047 137.912,313.840 136.253,313.400 135.773 C 312.960 135.292,312.150 134.371,311.600 133.724 C 311.050 133.077,309.664 131.480,308.520 130.174 C 307.377 128.868,305.397 126.536,304.120 124.990 C 301.706 122.066,300.236 120.621,297.200 118.186 C 295.571 116.880,292.528 114.266,289.533 111.600 C 286.771 109.141,284.095 107.076,282.600 106.248 C 281.940 105.883,280.590 104.961,279.600 104.199 C 278.610 103.437,277.158 102.464,276.373 102.036 C 275.589 101.608,274.711 100.975,274.424 100.629 C 274.137 100.283,273.699 99.997,273.451 99.993 C 272.995 99.985,270.242 98.289,268.400 96.881 C 267.850 96.461,266.568 95.751,265.552 95.304 C 264.535 94.857,263.579 94.290,263.428 94.045 C 263.277 93.800,262.829 93.600,262.432 93.600 C 262.036 93.600,261.052 93.152,260.245 92.605 C 259.439 92.058,258.301 91.490,257.716 91.343 C 257.132 91.197,256.031 90.654,255.271 90.138 C 254.511 89.622,253.507 89.200,253.041 89.200 C 252.575 89.200,251.348 88.750,250.315 88.200 C 249.282 87.650,248.234 87.200,247.987 87.200 C 247.739 87.200,246.426 86.775,245.068 86.255 C 243.711 85.736,240.710 84.727,238.400 84.013 C 236.090 83.300,232.828 82.285,231.152 81.758 C 229.475 81.231,227.627 80.800,227.045 80.800 C 226.463 80.800,223.785 80.362,221.093 79.828 C 218.402 79.293,214.622 78.728,212.693 78.572 C 207.773 78.175,206.800 77.130,206.800 72.246 C 206.800 67.765,206.417 66.872,203.824 65.300 C 201.064 63.626,199.200 63.603,197.056 65.216 M219.205 84.004 C 220.036 84.595,221.476 84.922,224.667 85.241 C 227.050 85.480,229.215 85.852,229.477 86.068 C 230.225 86.683,234.026 87.590,235.876 87.595 C 236.798 87.598,237.655 87.766,237.781 87.968 C 237.906 88.171,238.861 88.652,239.904 89.036 C 240.947 89.421,242.072 89.964,242.405 90.244 C 242.738 90.524,243.908 90.962,245.005 91.219 C 247.523 91.808,249.443 92.713,250.989 94.037 C 251.655 94.607,253.820 95.847,255.800 96.793 C 257.780 97.739,259.670 98.734,260.000 99.005 C 260.330 99.276,261.590 99.727,262.800 100.007 C 264.782 100.465,268.121 102.294,268.465 103.110 C 268.539 103.286,269.590 103.910,270.800 104.497 C 272.010 105.084,273.675 106.202,274.501 106.982 C 275.326 107.762,276.236 108.400,276.522 108.400 C 277.328 108.400,280.288 110.710,283.544 113.879 C 285.327 115.615,286.976 116.863,287.696 117.021 C 289.379 117.391,305.329 133.329,306.386 135.697 C 306.804 136.634,308.212 138.508,309.515 139.861 C 312.804 143.280,314.653 145.624,314.986 146.800 C 315.141 147.350,315.695 148.160,316.215 148.600 C 317.290 149.509,318.808 152.276,324.009 162.800 C 329.396 173.702,329.518 173.993,329.781 176.570 C 329.915 177.873,330.279 179.403,330.592 179.970 C 332.643 183.684,333.600 186.424,333.600 188.582 C 333.600 192.705,330.794 194.405,327.402 192.336 C 326.741 191.933,325.909 191.602,325.554 191.601 C 325.199 191.601,324.452 191.241,323.895 190.803 C 322.750 189.903,318.052 188.800,315.360 188.800 C 314.376 188.800,313.152 188.525,312.639 188.188 C 309.743 186.291,269.156 186.226,266.275 188.114 C 265.753 188.456,263.731 189.011,261.780 189.348 C 259.298 189.776,258.049 190.189,257.617 190.724 C 256.792 191.745,254.135 193.090,252.378 193.376 C 251.595 193.503,250.252 193.966,249.393 194.404 C 247.237 195.503,244.374 195.433,241.400 194.208 C 240.080 193.664,238.677 193.215,238.282 193.209 C 237.887 193.204,235.907 192.398,233.882 191.417 C 231.857 190.437,229.334 189.443,228.275 189.210 C 227.216 188.976,225.909 188.497,225.371 188.144 C 224.344 187.472,218.487 186.859,212.723 186.820 C 210.274 186.804,209.335 186.616,208.123 185.900 C 206.714 185.068,206.119 185.000,200.200 185.000 C 194.371 185.000,193.637 185.080,191.974 185.900 C 190.715 186.520,189.410 186.803,187.774 186.811 C 183.690 186.829,178.148 187.503,176.941 188.127 C 176.304 188.456,174.216 188.996,172.301 189.327 C 170.101 189.706,168.426 190.236,167.755 190.764 C 167.170 191.224,166.481 191.600,166.222 191.600 C 165.964 191.600,163.963 192.520,161.776 193.646 C 156.682 196.266,154.342 196.439,150.600 194.472 C 149.280 193.778,147.715 193.208,147.123 193.205 C 145.897 193.199,143.302 191.835,142.383 190.713 C 141.957 190.193,140.669 189.770,138.220 189.348 C 136.269 189.011,134.259 188.464,133.752 188.132 C 132.743 187.470,126.969 186.837,121.740 186.814 C 119.125 186.803,118.056 186.603,116.340 185.804 C 113.186 184.336,106.277 184.334,102.962 185.800 C 101.243 186.560,100.016 186.801,97.850 186.803 C 93.712 186.807,88.430 187.488,87.425 188.147 C 86.946 188.460,85.125 188.940,83.378 189.213 C 81.630 189.486,79.390 190.125,78.400 190.633 C 71.476 194.187,69.185 194.388,67.210 191.614 C 66.451 190.548,66.423 190.333,66.937 189.513 C 67.252 189.011,67.723 187.610,67.983 186.400 C 68.243 185.190,68.795 183.559,69.211 182.775 C 69.626 181.992,70.087 180.552,70.234 179.575 C 70.381 178.599,70.824 177.260,71.217 176.600 C 71.611 175.940,72.057 174.680,72.208 173.800 C 72.569 171.703,81.828 153.008,83.401 151.200 C 84.071 150.430,84.912 149.170,85.270 148.400 C 85.959 146.915,89.208 142.954,90.456 142.077 C 90.865 141.790,91.200 141.249,91.200 140.876 C 91.200 139.983,93.305 137.099,95.800 134.575 C 96.900 133.462,98.903 131.392,100.252 129.976 C 108.827 120.968,117.286 113.207,119.187 112.604 C 119.699 112.442,120.730 111.697,121.478 110.948 C 123.474 108.952,126.793 106.400,127.392 106.400 C 127.679 106.400,128.787 105.676,129.856 104.790 C 130.925 103.905,132.610 102.795,133.600 102.324 C 134.590 101.853,135.850 101.165,136.400 100.795 C 136.950 100.425,138.018 99.913,138.774 99.656 C 139.530 99.400,140.430 98.945,140.774 98.646 C 141.118 98.346,142.061 97.889,142.868 97.630 C 143.675 97.371,144.545 96.907,144.800 96.600 C 145.055 96.293,145.925 95.824,146.732 95.560 C 147.539 95.295,148.632 94.797,149.161 94.453 C 150.621 93.504,154.351 92.003,156.685 91.427 C 157.831 91.144,159.181 90.643,159.685 90.315 C 160.188 89.986,161.425 89.594,162.433 89.444 C 163.441 89.294,164.936 88.812,165.755 88.373 C 166.574 87.934,168.615 87.401,170.291 87.189 C 171.966 86.976,173.801 86.498,174.368 86.126 C 175.065 85.670,176.735 85.355,179.509 85.157 C 182.536 84.940,183.958 84.653,184.909 84.065 C 186.926 82.817,217.462 82.763,219.205 84.004 " stroke="none" fill="#f1f2ee" fill-rule="evenodd"></path><path id="path2" d="M162.800 0.436 C 162.800 0.676,163.190 1.188,163.667 1.574 C 165.312 2.906,163.909 4.297,161.397 3.826 C 160.175 3.597,160.000 3.415,160.000 2.382 L 160.000 1.200 156.227 1.200 C 152.074 1.200,150.760 2.056,152.762 3.458 C 153.943 4.286,153.842 5.524,152.566 5.844 C 151.360 6.147,150.394 5.385,150.294 4.051 C 150.190 2.677,143.869 2.915,143.672 4.301 C 143.602 4.796,143.827 5.484,144.172 5.829 C 144.941 6.599,144.982 7.444,144.264 7.720 C 143.370 8.063,142.677 7.354,142.878 6.302 C 143.074 5.280,140.077 4.741,137.952 5.415 C 137.184 5.659,136.848 7.600,137.573 7.600 C 138.196 7.600,138.498 9.200,137.991 9.811 C 137.304 10.639,136.000 9.837,136.000 8.586 C 136.000 7.647,135.885 7.600,133.587 7.600 C 130.966 7.600,130.238 8.209,131.137 9.648 C 131.869 10.821,131.714 12.000,130.827 12.000 C 130.280 12.000,130.016 11.677,129.927 10.900 C 129.747 9.341,124.692 9.155,124.472 10.700 C 124.348 11.575,123.990 11.777,122.846 11.618 C 120.945 11.352,119.383 13.324,120.800 14.200 C 121.371 14.553,121.294 15.824,120.670 16.342 C 119.973 16.920,119.200 16.173,119.200 14.920 C 119.200 14.054,119.046 14.000,116.600 14.000 C 114.108 14.000,114.000 14.041,114.000 14.979 C 114.000 15.878,113.828 15.968,111.900 16.079 C 110.071 16.184,109.784 16.316,109.672 17.100 C 109.561 17.882,109.307 18.000,107.737 18.000 C 106.097 18.000,105.889 18.111,105.478 19.200 C 105.061 20.303,104.870 20.400,103.112 20.400 C 101.350 20.400,101.200 20.477,101.200 21.379 C 101.200 22.278,101.028 22.368,99.100 22.479 C 97.289 22.583,96.983 22.721,96.875 23.475 C 96.798 24.021,96.421 24.398,95.875 24.475 C 95.262 24.563,94.963 24.923,94.875 25.680 C 94.760 26.680,94.597 26.769,92.675 26.880 C 90.871 26.984,90.583 27.118,90.472 27.900 C 90.359 28.694,90.113 28.800,88.372 28.800 C 86.550 28.800,86.400 28.874,86.400 29.773 C 86.400 30.538,86.164 30.774,85.300 30.873 C 84.436 30.973,84.173 31.236,84.073 32.100 C 83.974 32.964,83.738 33.200,82.973 33.200 C 82.207 33.200,82.000 33.409,82.000 34.179 C 82.000 35.078,81.828 35.168,79.900 35.279 C 78.089 35.383,77.783 35.521,77.675 36.275 C 77.599 36.814,77.220 37.199,76.692 37.275 C 76.158 37.353,75.745 37.779,75.600 38.400 C 75.453 39.032,75.042 39.447,74.484 39.528 C 73.856 39.619,73.600 39.931,73.600 40.607 C 73.600 41.472,73.411 41.569,71.500 41.679 C 69.689 41.783,69.383 41.921,69.275 42.675 C 69.198 43.221,68.821 43.598,68.275 43.675 C 67.732 43.753,67.353 44.130,67.276 44.669 C 67.199 45.213,66.712 45.692,65.976 45.948 C 65.208 46.216,64.800 46.633,64.800 47.151 C 64.800 47.669,64.488 47.989,63.900 48.072 C 63.330 48.153,62.954 48.521,62.875 49.075 C 62.798 49.621,62.421 49.998,61.875 50.075 C 61.352 50.150,60.953 50.529,60.883 51.019 C 60.814 51.499,60.277 52.022,59.583 52.284 C 58.811 52.575,58.400 53.011,58.400 53.537 C 58.400 54.070,58.094 54.388,57.500 54.472 C 56.930 54.553,56.554 54.921,56.475 55.475 C 56.398 56.021,56.021 56.398,55.475 56.475 C 54.921 56.554,54.553 56.930,54.472 57.500 C 54.388 58.094,54.070 58.400,53.537 58.400 C 53.011 58.400,52.575 58.811,52.284 59.583 C 52.022 60.277,51.499 60.814,51.019 60.883 C 50.529 60.953,50.150 61.352,50.075 61.875 C 49.998 62.421,49.621 62.798,49.075 62.875 C 48.521 62.954,48.153 63.330,48.072 63.900 C 47.989 64.488,47.669 64.800,47.151 64.800 C 46.633 64.800,46.216 65.208,45.948 65.976 C 45.692 66.712,45.213 67.199,44.669 67.276 C 44.130 67.353,43.753 67.732,43.675 68.275 C 43.598 68.821,43.221 69.198,42.675 69.275 C 41.921 69.383,41.783 69.689,41.679 71.500 C 41.569 73.411,41.472 73.600,40.607 73.600 C 39.931 73.600,39.619 73.856,39.528 74.484 C 39.447 75.042,39.032 75.453,38.400 75.600 C 37.779 75.745,37.353 76.158,37.275 76.692 C 37.199 77.220,36.814 77.599,36.275 77.675 C 35.521 77.783,35.383 78.089,35.279 79.900 C 35.168 81.828,35.078 82.000,34.179 82.000 C 33.409 82.000,33.200 82.207,33.200 82.973 C 33.200 83.738,32.964 83.974,32.100 84.073 C 31.236 84.173,30.973 84.436,30.873 85.300 C 30.774 86.164,30.538 86.400,29.773 86.400 C 28.874 86.400,28.800 86.550,28.800 88.372 C 28.800 90.113,28.694 90.359,27.900 90.472 C 27.118 90.583,26.984 90.871,26.880 92.675 C 26.769 94.597,26.680 94.760,25.680 94.875 C 24.923 94.963,24.563 95.262,24.475 95.875 C 24.398 96.421,24.021 96.798,23.475 96.875 C 22.721 96.983,22.583 97.289,22.479 99.100 C 22.368 101.028,22.278 101.200,21.379 101.200 C 20.477 101.200,20.400 101.350,20.400 103.112 C 20.400 104.870,20.303 105.061,19.200 105.478 C 18.111 105.889,18.000 106.097,18.000 107.737 C 18.000 109.307,17.882 109.561,17.100 109.672 C 16.316 109.784,16.184 110.071,16.079 111.900 C 15.968 113.828,15.878 114.000,14.979 114.000 C 14.071 114.000,14.000 114.145,14.000 116.000 C 14.000 117.690,13.884 118.000,13.249 118.000 C 11.940 118.000,11.521 118.996,11.665 121.767 C 11.796 124.285,11.768 124.372,10.800 124.484 C 9.893 124.589,9.789 124.796,9.679 126.700 C 9.568 128.628,9.478 128.800,8.579 128.800 C 7.622 128.800,7.600 128.872,7.600 132.000 C 7.600 135.109,7.573 135.200,6.643 135.200 C 5.378 135.200,5.159 135.915,5.235 139.794 L 5.299 143.047 6.450 142.878 C 7.407 142.737,7.600 142.851,7.600 143.555 C 7.600 144.475,6.481 144.721,5.726 143.966 C 4.344 142.584,3.404 143.704,3.284 146.877 C 3.172 149.821,3.933 151.534,4.915 150.552 C 5.432 150.035,6.025 152.007,5.594 152.811 C 5.155 153.631,4.780 153.575,3.529 152.503 C 1.862 151.075,1.200 152.147,1.200 156.270 C 1.200 159.380,1.304 160.046,1.761 159.870 C 3.015 159.389,4.442 162.237,3.617 163.573 C 3.245 164.174,1.200 163.852,1.200 163.192 C 1.200 162.977,0.930 162.800,0.600 162.800 C 0.099 162.800,0.000 163.622,0.000 167.800 C 0.000 171.807,0.111 172.800,0.557 172.800 C 1.310 172.800,1.600 173.691,1.600 176.000 C 1.600 178.309,1.310 179.200,0.557 179.200 C -0.489 179.200,-0.248 221.042,0.800 221.316 C 2.080 221.651,1.847 227.200,0.553 227.200 C 0.112 227.200,0.000 228.210,0.000 232.200 C 0.000 236.378,0.099 237.200,0.600 237.200 C 0.930 237.200,1.200 237.020,1.200 236.800 C 1.200 236.217,3.484 236.309,3.682 236.900 C 4.123 238.211,3.396 239.800,2.298 239.927 L 1.200 240.053 1.200 243.800 C 1.200 248.063,1.579 248.548,3.974 247.353 C 5.415 246.634,6.073 247.033,5.714 248.407 C 5.503 249.215,4.007 249.783,3.988 249.063 C 3.981 248.808,3.794 248.913,3.571 249.295 C 3.348 249.677,3.219 251.387,3.283 253.095 L 3.400 256.200 4.600 256.181 C 5.260 256.171,6.205 256.024,6.700 255.854 C 7.382 255.621,7.600 255.698,7.600 256.173 C 7.600 256.518,7.435 256.800,7.233 256.800 C 7.031 256.800,6.551 256.921,6.167 257.068 C 5.653 257.265,5.555 257.196,5.796 256.806 C 5.999 256.477,5.968 256.373,5.713 256.530 C 5.257 256.812,5.023 263.073,5.428 264.130 C 5.570 264.498,6.116 264.800,6.643 264.800 C 7.573 264.800,7.600 264.891,7.600 268.000 C 7.600 271.128,7.622 271.200,8.579 271.200 C 9.478 271.200,9.568 271.372,9.679 273.300 C 9.789 275.204,9.893 275.411,10.800 275.516 C 11.768 275.628,11.796 275.715,11.665 278.233 C 11.521 281.004,11.940 282.000,13.249 282.000 C 13.884 282.000,14.000 282.310,14.000 284.000 C 14.000 285.855,14.071 286.000,14.979 286.000 C 15.878 286.000,15.968 286.172,16.079 288.100 C 16.184 289.929,16.316 290.216,17.100 290.328 C 17.882 290.439,18.000 290.693,18.000 292.263 C 18.000 293.903,18.111 294.111,19.200 294.522 C 20.303 294.939,20.400 295.130,20.400 296.888 C 20.400 298.650,20.477 298.800,21.379 298.800 C 22.278 298.800,22.368 298.972,22.479 300.900 C 22.583 302.711,22.721 303.017,23.475 303.125 C 24.021 303.202,24.398 303.579,24.475 304.125 C 24.563 304.738,24.923 305.037,25.680 305.125 C 26.680 305.240,26.769 305.403,26.880 307.325 C 26.984 309.129,27.118 309.417,27.900 309.528 C 28.694 309.641,28.800 309.887,28.800 311.628 C 28.800 313.450,28.874 313.600,29.773 313.600 C 30.538 313.600,30.774 313.836,30.873 314.700 C 30.964 315.483,31.256 315.836,31.890 315.926 C 32.628 316.031,32.824 316.388,33.041 318.026 C 33.269 319.745,33.422 320.000,34.225 320.000 C 34.933 320.000,35.176 320.255,35.273 321.100 C 35.363 321.877,35.657 322.237,36.275 322.325 C 36.821 322.402,37.198 322.779,37.275 323.325 C 37.351 323.853,37.729 324.247,38.230 324.319 C 38.890 324.413,39.136 324.864,39.430 326.519 C 39.732 328.215,39.962 328.623,40.675 328.725 C 41.221 328.802,41.598 329.179,41.675 329.725 C 41.753 330.270,42.130 330.647,42.675 330.725 C 43.221 330.802,43.598 331.179,43.675 331.725 C 43.753 332.268,44.130 332.647,44.669 332.724 C 45.213 332.801,45.692 333.288,45.948 334.024 C 46.216 334.792,46.633 335.200,47.151 335.200 C 47.669 335.200,47.989 335.512,48.072 336.100 C 48.153 336.670,48.521 337.046,49.075 337.125 C 49.621 337.202,49.998 337.579,50.075 338.125 C 50.150 338.648,50.529 339.047,51.019 339.117 C 51.499 339.186,52.022 339.723,52.284 340.417 C 52.575 341.189,53.011 341.600,53.537 341.600 C 54.070 341.600,54.388 341.906,54.472 342.500 C 54.553 343.070,54.921 343.446,55.475 343.525 C 56.021 343.602,56.398 343.979,56.475 344.525 C 56.554 345.079,56.930 345.447,57.500 345.528 C 58.094 345.612,58.400 345.930,58.400 346.463 C 58.400 346.989,58.811 347.425,59.583 347.716 C 60.277 347.978,60.814 348.501,60.883 348.981 C 60.953 349.471,61.352 349.850,61.875 349.925 C 62.421 350.002,62.798 350.379,62.875 350.925 C 62.954 351.479,63.330 351.847,63.900 351.928 C 64.488 352.011,64.800 352.331,64.800 352.849 C 64.800 353.367,65.208 353.784,65.976 354.052 C 66.712 354.308,67.199 354.787,67.276 355.331 C 67.353 355.870,67.732 356.247,68.275 356.325 C 68.821 356.402,69.198 356.779,69.275 357.325 C 69.353 357.870,69.730 358.247,70.275 358.325 C 70.821 358.402,71.198 358.779,71.275 359.325 C 71.377 360.038,71.785 360.268,73.481 360.570 C 75.136 360.864,75.587 361.110,75.681 361.770 C 75.753 362.271,76.147 362.649,76.675 362.725 C 77.221 362.802,77.598 363.179,77.675 363.725 C 77.763 364.343,78.123 364.637,78.900 364.727 C 79.745 364.824,80.000 365.067,80.000 365.775 C 80.000 366.578,80.255 366.731,81.974 366.959 C 83.612 367.176,83.969 367.372,84.074 368.110 C 84.164 368.744,84.517 369.036,85.300 369.127 C 86.164 369.226,86.400 369.462,86.400 370.227 C 86.400 371.126,86.550 371.200,88.372 371.200 C 90.113 371.200,90.359 371.306,90.472 372.100 C 90.583 372.882,90.871 373.016,92.675 373.120 C 94.597 373.231,94.760 373.320,94.875 374.320 C 94.963 375.077,95.262 375.437,95.875 375.525 C 96.421 375.602,96.798 375.979,96.875 376.525 C 96.983 377.279,97.289 377.417,99.100 377.521 C 101.028 377.632,101.200 377.722,101.200 378.621 C 101.200 379.523,101.350 379.600,103.112 379.600 C 104.870 379.600,105.061 379.697,105.478 380.800 C 105.889 381.889,106.097 382.000,107.737 382.000 C 109.307 382.000,109.561 382.118,109.672 382.900 C 109.784 383.684,110.071 383.816,111.900 383.921 C 113.828 384.032,114.000 384.122,114.000 385.021 C 114.000 385.929,114.145 386.000,116.000 386.000 C 117.690 386.000,118.000 386.116,118.000 386.751 C 118.000 388.060,118.996 388.479,121.767 388.335 C 124.285 388.204,124.372 388.232,124.484 389.200 C 124.589 390.107,124.796 390.211,126.700 390.321 C 128.628 390.432,128.800 390.522,128.800 391.421 C 128.800 392.378,128.872 392.400,132.000 392.400 C 135.109 392.400,135.200 392.427,135.200 393.357 C 135.200 394.618,135.944 394.853,139.660 394.763 C 142.847 394.686,143.462 394.347,142.929 392.959 C 142.747 392.486,142.881 392.359,143.442 392.474 C 143.957 392.579,144.145 392.881,144.028 393.415 C 143.933 393.847,143.843 394.740,143.828 395.400 L 143.800 396.600 147.200 396.600 L 150.600 396.600 150.727 395.500 C 150.826 394.636,151.062 394.400,151.827 394.400 C 152.886 394.400,153.219 395.821,152.360 396.680 C 152.118 396.922,152.043 397.504,152.192 397.974 C 152.648 399.411,160.183 399.059,160.193 397.600 C 160.203 396.148,163.373 396.060,163.446 397.510 C 163.471 398.010,163.336 398.516,163.146 398.633 C 161.595 399.592,162.984 400.000,167.800 400.000 C 171.790 400.000,172.800 399.888,172.800 399.447 C 172.800 398.165,177.953 397.933,178.284 399.200 C 178.613 400.459,221.387 400.459,221.716 399.200 C 222.047 397.933,227.200 398.165,227.200 399.447 C 227.200 399.888,228.210 400.000,232.200 400.000 C 237.016 400.000,238.405 399.592,236.854 398.633 C 236.664 398.516,236.529 398.010,236.554 397.510 C 236.627 396.060,239.797 396.148,239.807 397.600 C 239.817 399.059,247.352 399.411,247.808 397.974 C 247.957 397.504,247.882 396.922,247.640 396.680 C 246.781 395.821,247.114 394.400,248.173 394.400 C 248.938 394.400,249.174 394.636,249.273 395.500 L 249.400 396.600 252.800 396.600 L 256.200 396.600 256.172 395.400 C 256.157 394.740,256.067 393.847,255.972 393.415 C 255.855 392.881,256.043 392.579,256.558 392.474 C 257.119 392.359,257.253 392.486,257.071 392.959 C 256.538 394.347,257.153 394.686,260.340 394.763 C 264.056 394.853,264.800 394.618,264.800 393.357 C 264.800 392.427,264.891 392.400,268.000 392.400 C 271.128 392.400,271.200 392.378,271.200 391.421 C 271.200 390.522,271.372 390.432,273.300 390.321 C 275.204 390.211,275.411 390.107,275.516 389.200 C 275.628 388.232,275.715 388.204,278.233 388.335 C 281.004 388.479,282.000 388.060,282.000 386.751 C 282.000 386.116,282.310 386.000,284.000 386.000 C 285.855 386.000,286.000 385.929,286.000 385.021 C 286.000 384.122,286.172 384.032,288.100 383.921 C 289.929 383.816,290.216 383.684,290.328 382.900 C 290.439 382.118,290.693 382.000,292.263 382.000 C 293.903 382.000,294.111 381.889,294.522 380.800 C 294.939 379.697,295.130 379.600,296.888 379.600 C 298.650 379.600,298.800 379.523,298.800 378.621 C 298.800 377.722,298.972 377.632,300.900 377.521 C 302.711 377.417,303.017 377.279,303.125 376.525 C 303.202 375.979,303.579 375.602,304.125 375.525 C 304.738 375.437,305.037 375.077,305.125 374.320 C 305.240 373.320,305.403 373.231,307.325 373.120 C 309.129 373.016,309.417 372.882,309.528 372.100 C 309.641 371.306,309.887 371.200,311.628 371.200 C 313.450 371.200,313.600 371.126,313.600 370.227 C 313.600 369.462,313.836 369.226,314.700 369.127 C 315.483 369.036,315.836 368.744,315.926 368.110 C 316.031 367.372,316.388 367.176,318.026 366.959 C 319.745 366.731,320.000 366.578,320.000 365.775 C 320.000 365.067,320.255 364.824,321.100 364.727 C 321.877 364.637,322.237 364.343,322.325 363.725 C 322.402 363.179,322.779 362.802,323.325 362.725 C 323.853 362.649,324.247 362.271,324.319 361.770 C 324.413 361.110,324.864 360.864,326.519 360.570 C 328.215 360.268,328.623 360.038,328.725 359.325 C 328.802 358.779,329.179 358.402,329.725 358.325 C 330.270 358.247,330.647 357.870,330.725 357.325 C 330.802 356.779,331.179 356.402,331.725 356.325 C 332.268 356.247,332.647 355.870,332.724 355.331 C 332.801 354.787,333.288 354.308,334.024 354.052 C 334.792 353.784,335.200 353.367,335.200 352.849 C 335.200 352.331,335.512 352.011,336.100 351.928 C 336.670 351.847,337.046 351.479,337.125 350.925 C 337.202 350.379,337.579 350.002,338.125 349.925 C 338.648 349.850,339.047 349.471,339.117 348.981 C 339.186 348.501,339.723 347.978,340.417 347.716 C 341.189 347.425,341.600 346.989,341.600 346.463 C 341.600 345.930,341.906 345.612,342.500 345.528 C 343.070 345.447,343.446 345.079,343.525 344.525 C 343.602 343.979,343.979 343.602,344.525 343.525 C 345.079 343.446,345.447 343.070,345.528 342.500 C 345.612 341.906,345.930 341.600,346.463 341.600 C 346.989 341.600,347.425 341.189,347.716 340.417 C 347.978 339.723,348.501 339.186,348.981 339.117 C 349.471 339.047,349.850 338.648,349.925 338.125 C 350.002 337.579,350.379 337.202,350.925 337.125 C 351.479 337.046,351.847 336.670,351.928 336.100 C 352.011 335.512,352.331 335.200,352.849 335.200 C 353.367 335.200,353.784 334.792,354.052 334.024 C 354.308 333.288,354.787 332.801,355.331 332.724 C 355.870 332.647,356.247 332.268,356.325 331.725 C 356.402 331.179,356.779 330.802,357.325 330.725 C 357.870 330.647,358.247 330.270,358.325 329.725 C 358.402 329.179,358.779 328.802,359.325 328.725 C 360.038 328.623,360.268 328.215,360.570 326.519 C 360.864 324.864,361.110 324.413,361.770 324.319 C 362.271 324.247,362.649 323.853,362.725 323.325 C 362.802 322.779,363.179 322.402,363.725 322.325 C 364.343 322.237,364.637 321.877,364.727 321.100 C 364.824 320.255,365.067 320.000,365.775 320.000 C 366.578 320.000,366.731 319.745,366.959 318.026 C 367.176 316.388,367.372 316.031,368.110 315.926 C 368.744 315.836,369.036 315.483,369.127 314.700 C 369.226 313.836,369.462 313.600,370.227 313.600 C 371.126 313.600,371.200 313.450,371.200 311.628 C 371.200 309.887,371.306 309.641,372.100 309.528 C 372.882 309.417,373.016 309.129,373.120 307.325 C 373.231 305.403,373.320 305.240,374.320 305.125 C 375.077 305.037,375.437 304.738,375.525 304.125 C 375.602 303.579,375.979 303.202,376.525 303.125 C 377.279 303.017,377.417 302.711,377.521 300.900 C 377.632 298.972,377.722 298.800,378.621 298.800 C 379.523 298.800,379.600 298.650,379.600 296.888 C 379.600 295.130,379.697 294.939,380.800 294.522 C 381.889 294.111,382.000 293.903,382.000 292.263 C 382.000 290.693,382.118 290.439,382.900 290.328 C 383.684 290.216,383.816 289.929,383.921 288.100 C 384.032 286.172,384.122 286.000,385.021 286.000 C 385.929 286.000,386.000 285.855,386.000 284.000 C 386.000 282.310,386.116 282.000,386.751 282.000 C 388.060 282.000,388.479 281.004,388.335 278.233 C 388.204 275.715,388.232 275.628,389.200 275.516 C 390.107 275.411,390.211 275.204,390.321 273.300 C 390.432 271.372,390.522 271.200,391.421 271.200 C 392.378 271.200,392.400 271.128,392.400 268.000 C 392.400 264.891,392.427 264.800,393.357 264.800 C 393.884 264.800,394.430 264.498,394.572 264.130 C 394.977 263.073,394.743 256.812,394.287 256.530 C 394.032 256.373,394.001 256.477,394.204 256.806 C 394.445 257.196,394.347 257.265,393.833 257.068 C 393.449 256.921,392.969 256.800,392.767 256.800 C 392.565 256.800,392.400 256.518,392.400 256.173 C 392.400 255.698,392.618 255.621,393.300 255.854 C 393.795 256.024,394.740 256.171,395.400 256.181 L 396.600 256.200 396.717 253.095 C 396.781 251.387,396.652 249.677,396.429 249.295 C 396.206 248.913,396.019 248.808,396.012 249.063 C 395.993 249.783,394.497 249.215,394.286 248.407 C 393.927 247.033,394.585 246.634,396.026 247.353 C 398.421 248.548,398.800 248.063,398.800 243.800 L 398.800 240.053 397.702 239.927 C 396.604 239.800,395.877 238.211,396.318 236.900 C 396.516 236.309,398.800 236.217,398.800 236.800 C 398.800 237.020,399.070 237.200,399.400 237.200 C 399.901 237.200,400.000 236.378,400.000 232.200 C 400.000 228.210,399.888 227.200,399.447 227.200 C 398.153 227.200,397.920 221.651,399.200 221.316 C 400.248 221.042,400.489 179.200,399.443 179.200 C 398.690 179.200,398.400 178.309,398.400 176.000 C 398.400 173.691,398.690 172.800,399.443 172.800 C 399.889 172.800,400.000 171.807,400.000 167.800 C 400.000 163.622,399.901 162.800,399.400 162.800 C 399.070 162.800,398.800 162.977,398.800 163.192 C 398.800 163.852,396.755 164.174,396.383 163.573 C 395.558 162.237,396.985 159.389,398.239 159.870 C 398.696 160.046,398.800 159.380,398.800 156.270 C 398.800 152.147,398.138 151.075,396.471 152.503 C 395.220 153.575,394.845 153.631,394.406 152.811 C 393.975 152.007,394.568 150.035,395.085 150.552 C 396.067 151.534,396.828 149.821,396.716 146.877 C 396.596 143.704,395.656 142.584,394.274 143.966 C 393.519 144.721,392.400 144.475,392.400 143.555 C 392.400 142.851,392.593 142.737,393.550 142.878 L 394.701 143.047 394.765 139.794 C 394.841 135.915,394.622 135.200,393.357 135.200 C 392.427 135.200,392.400 135.109,392.400 132.000 C 392.400 128.872,392.378 128.800,391.421 128.800 C 390.522 128.800,390.432 128.628,390.321 126.700 C 390.211 124.796,390.107 124.589,389.200 124.484 C 388.232 124.372,388.204 124.285,388.335 121.767 C 388.479 118.996,388.060 118.000,386.751 118.000 C 386.116 118.000,386.000 117.690,386.000 116.000 C 386.000 114.145,385.929 114.000,385.021 114.000 C 384.122 114.000,384.032 113.828,383.921 111.900 C 383.816 110.071,383.684 109.784,382.900 109.672 C 382.118 109.561,382.000 109.307,382.000 107.737 C 382.000 106.097,381.889 105.889,380.800 105.478 C 379.697 105.061,379.600 104.870,379.600 103.112 C 379.600 101.350,379.523 101.200,378.621 101.200 C 377.722 101.200,377.632 101.028,377.521 99.100 C 377.417 97.289,377.279 96.983,376.525 96.875 C 375.979 96.798,375.602 96.421,375.525 95.875 C 375.437 95.262,375.077 94.963,374.320 94.875 C 373.320 94.760,373.231 94.597,373.120 92.675 C 373.016 90.871,372.882 90.583,372.100 90.472 C 371.306 90.359,371.200 90.113,371.200 88.372 C 371.200 86.550,371.126 86.400,370.227 86.400 C 369.462 86.400,369.226 86.164,369.127 85.300 C 369.027 84.436,368.764 84.173,367.900 84.073 C 367.036 83.974,366.800 83.738,366.800 82.973 C 366.800 82.207,366.591 82.000,365.821 82.000 C 364.922 82.000,364.832 81.828,364.721 79.900 C 364.617 78.089,364.479 77.783,363.725 77.675 C 363.186 77.599,362.801 77.220,362.725 76.692 C 362.647 76.158,362.221 75.745,361.600 75.600 C 360.968 75.453,360.553 75.042,360.472 74.484 C 360.381 73.856,360.069 73.600,359.393 73.600 C 358.528 73.600,358.431 73.411,358.321 71.500 C 358.217 69.689,358.079 69.383,357.325 69.275 C 356.779 69.198,356.402 68.821,356.325 68.275 C 356.247 67.732,355.870 67.353,355.331 67.276 C 354.787 67.199,354.308 66.712,354.052 65.976 C 353.784 65.208,353.367 64.800,352.849 64.800 C 352.331 64.800,352.011 64.488,351.928 63.900 C 351.847 63.330,351.479 62.954,350.925 62.875 C 350.379 62.798,350.002 62.421,349.925 61.875 C 349.850 61.352,349.471 60.953,348.981 60.883 C 348.501 60.814,347.978 60.277,347.716 59.583 C 347.425 58.811,346.989 58.400,346.463 58.400 C 345.930 58.400,345.612 58.094,345.528 57.500 C 345.447 56.930,345.079 56.554,344.525 56.475 C 343.979 56.398,343.602 56.021,343.525 55.475 C 343.446 54.921,343.070 54.553,342.500 54.472 C 341.906 54.388,341.600 54.070,341.600 53.537 C 341.600 53.011,341.189 52.575,340.417 52.284 C 339.723 52.022,339.186 51.499,339.117 51.019 C 339.047 50.529,338.648 50.150,338.125 50.075 C 337.579 49.998,337.202 49.621,337.125 49.075 C 337.046 48.521,336.670 48.153,336.100 48.072 C 335.512 47.989,335.200 47.669,335.200 47.151 C 335.200 46.633,334.792 46.216,334.024 45.948 C 333.288 45.692,332.801 45.213,332.724 44.669 C 332.647 44.130,332.268 43.753,331.725 43.675 C 331.179 43.598,330.802 43.221,330.725 42.675 C 330.617 41.921,330.311 41.783,328.500 41.679 C 326.589 41.569,326.400 41.472,326.400 40.607 C 326.400 39.931,326.144 39.619,325.516 39.528 C 324.958 39.447,324.547 39.032,324.400 38.400 C 324.255 37.779,323.842 37.353,323.308 37.275 C 322.780 37.199,322.401 36.814,322.325 36.275 C 322.217 35.521,321.911 35.383,320.100 35.279 C 318.172 35.168,318.000 35.078,318.000 34.179 C 318.000 33.409,317.793 33.200,317.027 33.200 C 316.262 33.200,316.026 32.964,315.927 32.100 C 315.827 31.236,315.564 30.973,314.700 30.873 C 313.836 30.774,313.600 30.538,313.600 29.773 C 313.600 28.874,313.450 28.800,311.628 28.800 C 309.887 28.800,309.641 28.694,309.528 27.900 C 309.417 27.118,309.129 26.984,307.325 26.880 C 305.403 26.769,305.240 26.680,305.125 25.680 C 305.037 24.923,304.738 24.563,304.125 24.475 C 303.579 24.398,303.202 24.021,303.125 23.475 C 303.017 22.721,302.711 22.583,300.900 22.479 C 298.972 22.368,298.800 22.278,298.800 21.379 C 298.800 20.477,298.650 20.400,296.888 20.400 C 295.130 20.400,294.939 20.303,294.522 19.200 C 294.111 18.111,293.903 18.000,292.263 18.000 C 290.693 18.000,290.439 17.882,290.328 17.100 C 290.216 16.316,289.929 16.184,288.100 16.079 C 286.172 15.968,286.000 15.878,286.000 14.979 C 286.000 14.041,285.892 14.000,283.400 14.000 C 280.929 14.000,280.800 14.047,280.800 14.951 C 280.800 16.183,279.923 16.963,279.270 16.310 C 278.695 15.735,278.655 14.537,279.200 14.200 C 280.617 13.324,279.055 11.352,277.154 11.618 C 276.010 11.777,275.652 11.575,275.528 10.700 C 275.308 9.155,270.253 9.341,270.073 10.900 C 269.984 11.677,269.720 12.000,269.173 12.000 C 268.286 12.000,268.131 10.821,268.863 9.648 C 269.762 8.209,269.034 7.600,266.413 7.600 C 264.115 7.600,264.000 7.647,264.000 8.586 C 264.000 9.837,262.696 10.639,262.009 9.811 C 261.502 9.200,261.804 7.600,262.427 7.600 C 263.152 7.600,262.816 5.659,262.048 5.415 C 259.923 4.741,256.926 5.280,257.122 6.302 C 257.323 7.354,256.630 8.063,255.736 7.720 C 255.018 7.444,255.059 6.599,255.828 5.829 C 256.173 5.484,256.398 4.796,256.328 4.301 C 256.131 2.915,249.810 2.677,249.706 4.051 C 249.606 5.385,248.640 6.147,247.434 5.844 C 246.158 5.524,246.057 4.286,247.238 3.458 C 249.240 2.056,247.926 1.200,243.773 1.200 L 240.000 1.200 240.000 2.382 C 240.000 3.415,239.825 3.597,238.603 3.826 C 236.091 4.297,234.688 2.906,236.333 1.574 C 237.999 0.225,237.416 0.000,232.247 -0.000 C 227.730 -0.000,227.276 0.067,227.096 0.754 C 226.659 2.426,218.800 2.267,218.800 0.586 C 218.800 0.080,216.244 0.000,200.000 0.000 C 183.756 0.000,181.200 0.080,181.200 0.586 C 181.200 2.267,173.341 2.426,172.904 0.754 C 172.673 -0.131,162.800 -0.441,162.800 0.436 M202.200 63.621 C 206.537 64.751,208.400 67.304,208.400 72.121 C 208.400 76.087,208.630 76.398,211.580 76.407 C 213.376 76.413,214.136 76.642,215.560 77.607 C 217.272 78.767,217.452 78.800,222.134 78.800 C 226.480 78.800,227.036 78.882,227.846 79.643 C 228.487 80.246,229.547 80.575,231.557 80.795 C 233.724 81.033,234.657 81.345,235.616 82.152 C 236.652 83.024,237.259 83.200,239.221 83.200 C 241.266 83.200,241.665 83.327,242.206 84.153 C 242.720 84.938,243.250 85.136,245.210 85.278 C 246.943 85.404,247.842 85.688,248.520 86.325 C 249.159 86.925,249.956 87.200,251.056 87.200 C 252.229 87.200,252.901 87.456,253.556 88.153 C 254.048 88.677,255.129 89.214,255.958 89.347 C 256.787 89.479,257.793 89.951,258.195 90.394 C 258.596 90.837,259.211 91.203,259.562 91.206 C 259.913 91.209,260.650 91.475,261.200 91.797 C 261.750 92.118,263.100 92.843,264.200 93.406 C 266.980 94.831,269.032 96.108,270.096 97.074 C 270.593 97.525,271.526 98.020,272.170 98.173 C 273.284 98.437,273.715 98.752,276.448 101.300 C 277.097 101.905,277.995 102.400,278.443 102.400 C 278.892 102.400,280.399 103.345,281.793 104.500 C 283.186 105.655,285.100 107.050,286.047 107.600 C 286.993 108.150,288.337 109.140,289.034 109.800 C 289.730 110.460,291.718 112.356,293.450 114.014 C 295.183 115.672,297.338 117.523,298.241 118.127 C 300.259 119.479,304.759 124.121,306.102 126.236 C 306.649 127.096,307.884 128.530,308.848 129.423 C 311.660 132.027,314.507 135.380,315.800 137.608 C 316.460 138.746,317.371 140.065,317.823 140.539 C 319.299 142.082,320.752 144.268,321.024 145.355 C 321.171 145.940,321.645 146.666,322.076 146.968 C 322.845 147.507,323.076 147.863,325.292 151.936 C 325.893 153.040,326.568 154.057,326.792 154.195 C 327.017 154.334,327.200 154.770,327.200 155.163 C 327.200 155.557,327.737 156.672,328.393 157.640 C 329.049 158.608,329.589 159.774,329.593 160.230 C 329.597 160.687,330.029 161.463,330.553 161.956 C 331.077 162.448,331.613 163.519,331.743 164.334 C 331.874 165.150,332.435 166.434,332.990 167.187 C 333.665 168.101,334.000 169.075,334.000 170.120 C 334.000 171.205,334.306 172.049,335.000 172.873 C 335.782 173.802,336.000 174.508,336.000 176.109 C 336.000 177.766,336.197 178.362,337.035 179.236 C 337.879 180.117,338.088 180.760,338.171 182.724 C 338.252 184.659,338.481 185.381,339.336 186.397 C 340.336 187.586,340.400 187.907,340.400 191.753 C 340.400 195.489,340.487 195.962,341.400 197.200 C 343.282 199.751,342.652 205.180,340.567 204.387 C 340.006 204.174,339.123 204.000,338.605 204.000 C 338.086 204.000,337.153 203.573,336.531 203.052 C 335.909 202.530,334.834 201.980,334.141 201.829 C 333.449 201.678,332.576 201.215,332.200 200.800 C 331.824 200.385,330.951 199.922,330.259 199.771 C 329.566 199.620,328.481 199.061,327.846 198.528 C 326.993 197.813,326.406 197.623,325.600 197.800 C 324.787 197.979,324.204 197.783,323.313 197.034 C 322.656 196.481,321.355 195.906,320.422 195.757 C 319.489 195.608,318.169 195.017,317.488 194.444 C 316.388 193.519,315.904 193.402,313.158 193.401 C 310.425 193.400,309.945 193.286,309.018 192.416 L 307.969 191.431 290.968 191.493 L 273.968 191.556 272.694 192.628 C 271.472 193.656,271.273 193.692,267.899 193.500 C 264.560 193.310,264.342 193.347,263.637 194.244 C 263.150 194.862,262.153 195.346,260.747 195.646 C 259.566 195.898,258.098 196.525,257.485 197.039 C 256.677 197.716,256.063 197.913,255.258 197.752 C 254.445 197.589,253.830 197.791,252.973 198.504 C 252.328 199.040,251.260 199.609,250.600 199.769 C 249.940 199.929,249.001 200.432,248.513 200.887 C 247.039 202.263,243.936 202.342,242.074 201.051 C 241.240 200.473,240.196 200.000,239.754 200.000 C 239.312 200.000,238.543 199.620,238.045 199.156 C 237.546 198.691,236.230 198.072,235.120 197.779 C 234.009 197.486,232.707 196.876,232.225 196.423 C 231.624 195.859,230.814 195.600,229.648 195.600 C 228.425 195.600,227.557 195.303,226.562 194.544 C 225.359 193.626,224.827 193.495,222.489 193.544 C 220.087 193.594,219.608 193.467,218.000 192.358 C 216.080 191.033,210.411 190.829,208.961 192.032 C 208.484 192.428,208.400 202.227,208.400 257.630 C 208.400 321.849,208.347 324.800,207.200 324.800 C 206.702 324.800,206.051 326.708,206.267 327.533 C 206.553 328.627,205.753 330.938,204.785 331.814 C 204.353 332.204,204.000 332.901,203.999 333.362 C 203.999 333.823,203.284 335.190,202.410 336.400 C 201.536 337.610,200.466 339.247,200.033 340.039 C 199.038 341.858,195.031 345.544,193.231 346.296 C 192.477 346.611,191.519 347.303,191.101 347.834 C 190.684 348.365,190.113 348.800,189.833 348.800 C 189.553 348.800,188.997 349.162,188.596 349.604 C 188.196 350.046,186.968 350.675,185.868 351.002 C 184.767 351.329,183.517 351.912,183.089 352.298 C 182.499 352.831,181.615 353.000,179.424 353.000 C 176.925 353.000,176.322 353.148,174.947 354.100 C 173.693 354.967,172.901 355.200,171.200 355.200 C 169.498 355.200,168.708 354.968,167.456 354.100 C 166.061 353.134,165.490 352.999,162.754 352.989 C 160.123 352.979,159.497 352.843,158.720 352.113 C 158.214 351.638,157.018 351.073,156.062 350.858 C 155.106 350.644,153.924 350.093,153.436 349.634 C 152.948 349.175,152.429 348.800,152.282 348.800 C 150.142 348.800,140.800 339.813,140.800 337.754 C 140.800 337.206,140.400 336.556,139.834 336.185 C 139.303 335.837,138.598 334.878,138.268 334.054 C 137.938 333.229,137.383 332.318,137.034 332.028 C 136.635 331.697,136.400 330.864,136.400 329.782 C 136.400 328.490,136.126 327.734,135.300 326.748 L 134.200 325.435 134.318 319.686 L 134.437 313.936 135.817 312.557 C 136.819 311.554,137.661 311.119,138.898 310.964 C 139.834 310.847,140.780 310.696,141.000 310.628 C 143.999 309.701,148.246 312.367,148.667 315.440 C 148.799 316.402,149.333 317.767,149.854 318.473 C 150.582 319.459,150.800 320.269,150.800 321.980 C 150.800 324.740,151.284 326.495,152.367 327.656 C 152.825 328.148,153.200 328.756,153.200 329.007 C 153.200 329.257,154.306 330.528,155.657 331.831 C 157.009 333.134,158.524 334.615,159.025 335.123 C 159.525 335.631,160.622 336.236,161.461 336.468 C 162.300 336.700,163.234 337.241,163.535 337.671 C 164.419 338.934,176.690 338.621,178.095 337.300 C 178.760 336.675,179.542 336.400,180.660 336.400 C 181.899 336.400,182.502 336.148,183.291 335.300 C 183.854 334.695,185.487 333.058,186.920 331.662 C 188.722 329.906,189.601 328.722,189.770 327.817 C 189.905 327.098,190.372 326.187,190.808 325.793 C 191.884 324.819,192.080 192.896,191.006 192.005 C 189.595 190.834,183.904 190.996,182.415 192.249 C 181.177 193.292,180.748 193.405,177.860 193.455 C 175.048 193.504,174.590 193.617,173.986 194.418 C 173.448 195.131,172.798 195.365,170.951 195.508 C 169.251 195.640,168.323 195.940,167.600 196.592 C 167.050 197.089,166.036 197.600,165.346 197.728 C 164.656 197.856,163.416 198.420,162.590 198.981 C 161.764 199.541,160.808 200.000,160.466 200.000 C 160.123 200.000,159.160 200.473,158.326 201.051 C 156.582 202.260,153.395 202.263,152.063 201.057 C 151.662 200.694,150.494 200.111,149.467 199.761 C 148.440 199.411,147.600 198.991,147.600 198.827 C 147.600 198.389,145.705 197.600,144.653 197.600 C 144.153 197.600,143.353 197.150,142.875 196.600 C 142.167 195.786,141.638 195.600,140.033 195.600 C 138.472 195.600,137.793 195.374,136.772 194.515 C 135.613 193.540,135.213 193.440,132.831 193.538 C 130.502 193.633,129.986 193.513,128.590 192.557 L 127.000 191.467 110.061 191.501 L 93.121 191.535 92.129 192.467 C 91.291 193.254,90.579 193.434,87.563 193.619 C 84.544 193.804,83.898 193.967,83.407 194.668 C 82.973 195.289,82.265 195.545,80.610 195.683 C 79.028 195.814,78.116 196.128,77.423 196.779 C 76.727 197.433,75.918 197.709,74.569 197.754 C 73.108 197.804,72.553 198.017,72.094 198.709 C 71.707 199.292,71.099 199.600,70.333 199.600 C 69.625 199.600,68.776 199.987,68.182 200.582 C 67.642 201.122,66.582 201.680,65.826 201.821 C 65.070 201.963,64.126 202.440,63.727 202.881 C 62.907 203.787,61.187 204.745,59.523 205.222 C 57.446 205.818,56.869 202.930,58.643 200.822 C 59.644 199.632,59.684 199.398,59.627 194.968 C 59.571 190.568,59.615 190.298,60.584 189.146 C 61.391 188.187,61.600 187.505,61.600 185.830 C 61.600 184.149,61.842 183.363,62.793 181.960 C 63.690 180.636,63.987 179.737,63.993 178.331 C 63.998 176.927,64.249 176.165,65.000 175.273 C 65.708 174.432,66.000 173.609,66.000 172.458 C 66.000 171.387,66.257 170.587,66.751 170.116 C 67.164 169.722,67.792 168.389,68.147 167.152 C 68.502 165.916,69.062 164.680,69.393 164.406 C 69.724 164.131,70.188 163.187,70.425 162.307 C 70.662 161.426,71.194 160.343,71.608 159.899 C 72.022 159.455,72.473 158.578,72.611 157.951 C 72.749 157.323,73.043 156.697,73.264 156.561 C 73.485 156.424,74.016 155.567,74.444 154.656 C 75.481 152.450,76.866 150.213,77.880 149.104 C 78.336 148.607,78.841 147.762,79.004 147.228 C 79.380 145.991,81.363 143.241,82.403 142.513 C 82.842 142.206,83.200 141.649,83.200 141.276 C 83.200 140.397,85.293 137.490,87.700 135.028 C 88.745 133.959,89.600 132.943,89.600 132.771 C 89.600 132.598,89.827 132.219,90.105 131.929 C 90.383 131.638,90.901 130.945,91.256 130.389 C 93.285 127.213,106.764 113.812,109.768 111.986 C 111.021 111.224,113.014 109.700,114.196 108.600 C 117.946 105.110,118.177 104.933,119.360 104.641 C 119.997 104.484,121.428 103.465,122.539 102.377 C 123.977 100.969,124.877 100.400,125.667 100.400 C 126.435 100.400,127.049 100.031,127.663 99.200 C 128.151 98.540,128.759 98.000,129.013 98.000 C 129.268 98.000,129.802 97.639,130.202 97.198 C 130.601 96.757,131.615 96.211,132.457 95.985 C 133.298 95.758,134.163 95.243,134.379 94.840 C 134.606 94.415,135.415 94.004,136.306 93.861 C 137.227 93.714,138.193 93.212,138.718 92.608 C 139.269 91.974,140.015 91.600,140.728 91.600 C 141.419 91.600,142.227 91.210,142.800 90.600 C 143.360 90.004,144.183 89.600,144.839 89.600 C 145.444 89.600,146.447 89.181,147.069 88.668 C 147.691 88.155,149.046 87.504,150.080 87.221 C 151.114 86.939,152.267 86.368,152.642 85.954 C 153.127 85.418,153.871 85.200,155.213 85.200 C 156.483 85.200,157.282 84.983,157.651 84.538 C 158.463 83.559,160.448 82.844,161.694 83.082 C 162.484 83.233,163.337 82.939,164.761 82.025 C 166.496 80.911,167.019 80.773,169.109 80.874 C 171.153 80.972,171.706 80.835,173.064 79.894 C 174.541 78.871,174.916 78.800,178.866 78.800 C 182.957 78.800,183.138 78.762,184.600 77.600 C 185.876 76.586,186.461 76.400,188.375 76.400 C 191.275 76.400,191.600 76.035,191.600 72.775 C 191.600 70.425,191.742 69.926,192.801 68.555 C 194.812 65.951,196.843 64.003,197.744 63.812 C 198.215 63.713,198.960 63.555,199.400 63.462 C 199.840 63.369,200.290 63.273,200.400 63.249 C 200.510 63.224,201.320 63.392,202.200 63.621 " stroke="none" fill="#fba304" fill-rule="evenodd"></path><path id="path3" d="M172.875 0.700 C 173.190 2.355,181.200 2.267,181.200 0.609 C 181.200 0.102,180.490 0.000,176.971 0.000 C 173.159 0.000,172.754 0.069,172.875 0.700 M218.800 0.609 C 218.800 2.267,226.810 2.355,227.125 0.700 C 227.246 0.069,226.841 0.000,223.029 0.000 C 219.510 0.000,218.800 0.102,218.800 0.609 M160.000 2.382 C 160.000 4.178,163.601 4.705,164.254 3.004 C 164.659 1.948,163.621 1.200,161.751 1.200 C 160.078 1.200,160.000 1.253,160.000 2.382 M236.004 1.795 C 234.894 3.133,236.327 4.253,238.603 3.826 C 239.825 3.597,240.000 3.415,240.000 2.382 C 240.000 1.014,237.016 0.576,236.004 1.795 M150.271 3.500 C 150.026 3.915,150.647 5.458,151.195 5.797 C 152.642 6.691,154.304 4.864,153.120 3.680 C 152.592 3.152,150.551 3.023,150.271 3.500 M246.898 3.662 C 246.056 4.504,246.317 5.564,247.434 5.844 C 248.585 6.133,249.456 5.492,249.669 4.200 C 249.826 3.243,247.725 2.835,246.898 3.662 M143.039 5.494 C 142.590 5.944,142.799 7.514,143.336 7.720 C 144.206 8.054,144.911 7.380,144.628 6.487 C 144.360 5.643,143.455 5.078,143.039 5.494 M255.832 5.825 C 255.074 6.584,255.011 7.468,255.700 7.708 C 256.575 8.013,257.200 7.544,257.200 6.581 C 257.200 5.357,256.621 5.037,255.832 5.825 M136.000 8.586 C 136.000 9.837,137.304 10.639,137.991 9.811 C 138.723 8.929,138.111 7.600,136.973 7.600 C 136.206 7.600,136.000 7.808,136.000 8.586 M261.794 8.419 C 261.651 8.870,261.748 9.496,262.009 9.811 C 262.696 10.639,264.000 9.837,264.000 8.586 C 264.000 7.296,262.194 7.159,261.794 8.419 M129.912 10.781 C 130.041 11.662,130.307 12.000,130.872 12.000 C 132.015 12.000,131.732 9.847,130.566 9.681 C 129.847 9.578,129.757 9.729,129.912 10.781 M268.667 9.867 C 268.520 10.013,268.400 10.553,268.400 11.067 C 268.400 12.545,269.863 12.313,270.085 10.800 C 270.256 9.637,269.436 9.098,268.667 9.867 M119.200 14.923 C 119.200 16.251,120.125 17.013,120.780 16.224 C 121.492 15.367,121.127 14.219,120.096 14.072 C 119.377 13.970,119.200 14.138,119.200 14.923 M279.067 14.267 C 278.200 15.134,279.346 17.109,280.270 16.342 C 281.089 15.662,280.944 14.000,280.067 14.000 C 279.663 14.000,279.213 14.120,279.067 14.267 M199.400 63.462 C 198.960 63.555,198.215 63.713,197.744 63.812 C 196.843 64.003,194.812 65.951,192.801 68.555 C 191.742 69.926,191.600 70.425,191.600 72.775 C 191.600 76.035,191.275 76.400,188.375 76.400 C 186.461 76.400,185.876 76.586,184.600 77.600 C 183.138 78.762,182.957 78.800,178.866 78.800 C 174.916 78.800,174.541 78.871,173.064 79.894 C 171.706 80.835,171.153 80.972,169.109 80.874 C 167.019 80.773,166.496 80.911,164.761 82.025 C 163.337 82.939,162.484 83.233,161.694 83.082 C 160.448 82.844,158.463 83.559,157.651 84.538 C 157.282 84.983,156.483 85.200,155.213 85.200 C 153.871 85.200,153.127 85.418,152.642 85.954 C 152.267 86.368,151.114 86.939,150.080 87.221 C 149.046 87.504,147.691 88.155,147.069 88.668 C 146.447 89.181,145.444 89.600,144.839 89.600 C 144.183 89.600,143.360 90.004,142.800 90.600 C 142.227 91.210,141.419 91.600,140.728 91.600 C 140.015 91.600,139.269 91.974,138.718 92.608 C 138.193 93.212,137.227 93.714,136.306 93.861 C 135.415 94.004,134.606 94.415,134.379 94.840 C 134.163 95.243,133.298 95.758,132.457 95.985 C 131.615 96.211,130.601 96.757,130.202 97.198 C 129.802 97.639,129.268 98.000,129.013 98.000 C 128.759 98.000,128.155 98.535,127.671 99.189 C 126.700 100.502,127.438 100.535,128.937 99.244 C 130.002 98.326,132.527 96.949,140.200 93.100 C 149.387 88.491,151.523 87.494,153.400 86.943 C 154.280 86.684,157.070 85.741,159.600 84.847 C 164.355 83.166,172.008 81.124,176.200 80.416 C 177.520 80.193,179.770 79.755,181.200 79.441 C 182.630 79.128,185.388 78.743,187.328 78.586 C 192.028 78.206,193.200 77.335,193.200 74.220 C 193.200 69.059,193.858 67.584,197.273 65.080 C 199.300 63.594,201.111 63.655,203.824 65.300 C 206.417 66.872,206.800 67.765,206.800 72.246 C 206.800 77.130,207.773 78.175,212.693 78.572 C 214.622 78.728,218.402 79.293,221.093 79.828 C 223.785 80.362,226.463 80.800,227.045 80.800 C 228.062 80.800,229.212 81.129,238.303 84.022 C 242.709 85.423,243.116 85.429,242.168 84.076 C 241.655 83.344,241.169 83.200,239.208 83.200 C 237.260 83.200,236.650 83.022,235.616 82.152 C 234.657 81.345,233.724 81.033,231.557 80.795 C 229.547 80.575,228.487 80.246,227.846 79.643 C 227.036 78.882,226.480 78.800,222.134 78.800 C 217.452 78.800,217.272 78.767,215.560 77.607 C 214.136 76.642,213.376 76.413,211.580 76.407 C 208.630 76.398,208.400 76.087,208.400 72.121 C 208.400 67.304,206.537 64.751,202.200 63.621 C 201.320 63.392,200.510 63.224,200.400 63.249 C 200.290 63.273,199.840 63.369,199.400 63.462 M184.909 84.065 C 183.958 84.653,182.536 84.940,179.509 85.157 C 176.735 85.355,175.065 85.670,174.368 86.126 C 173.801 86.498,171.966 86.976,170.291 87.189 C 168.615 87.401,166.574 87.934,165.755 88.373 C 164.936 88.812,163.441 89.294,162.433 89.444 C 161.425 89.594,160.188 89.986,159.685 90.315 C 159.181 90.643,157.831 91.144,156.685 91.427 C 154.351 92.003,150.621 93.504,149.161 94.453 C 148.632 94.797,147.539 95.295,146.732 95.560 C 145.925 95.824,145.055 96.293,144.800 96.600 C 144.545 96.907,143.675 97.371,142.868 97.630 C 142.061 97.889,141.118 98.346,140.774 98.646 C 140.430 98.945,139.530 99.400,138.774 99.656 C 138.018 99.913,136.950 100.425,136.400 100.795 C 135.850 101.165,134.590 101.853,133.600 102.324 C 132.610 102.795,130.925 103.905,129.856 104.790 C 128.787 105.676,127.679 106.400,127.392 106.400 C 126.793 106.400,123.474 108.952,121.478 110.948 C 120.730 111.697,119.699 112.442,119.187 112.604 C 117.286 113.207,108.827 120.968,100.252 129.976 C 98.903 131.392,96.900 133.462,95.800 134.575 C 93.305 137.099,91.200 139.983,91.200 140.876 C 91.200 141.249,90.865 141.790,90.456 142.077 C 89.208 142.954,85.959 146.915,85.270 148.400 C 84.912 149.170,84.071 150.430,83.401 151.200 C 81.828 153.008,72.569 171.703,72.208 173.800 C 72.057 174.680,71.611 175.940,71.217 176.600 C 70.824 177.260,70.381 178.599,70.234 179.575 C 70.087 180.552,69.626 181.992,69.211 182.775 C 68.795 183.559,68.243 185.190,67.983 186.400 C 67.723 187.610,67.252 189.011,66.937 189.513 C 66.423 190.333,66.451 190.548,67.210 191.614 C 69.185 194.388,71.476 194.187,78.400 190.633 C 79.390 190.125,81.630 189.486,83.378 189.213 C 85.125 188.940,86.946 188.460,87.425 188.147 C 88.430 187.488,93.712 186.807,97.850 186.803 C 100.016 186.801,101.243 186.560,102.962 185.800 C 106.277 184.334,113.186 184.336,116.340 185.804 C 118.056 186.603,119.125 186.803,121.740 186.814 C 126.969 186.837,132.743 187.470,133.752 188.132 C 134.259 188.464,136.269 189.011,138.220 189.348 C 140.669 189.770,141.957 190.193,142.383 190.713 C 143.302 191.835,145.897 193.199,147.123 193.205 C 147.715 193.208,149.280 193.778,150.600 194.472 C 154.342 196.439,156.682 196.266,161.776 193.646 C 163.963 192.520,165.964 191.600,166.222 191.600 C 166.481 191.600,167.170 191.224,167.755 190.764 C 168.426 190.236,170.101 189.706,172.301 189.327 C 174.216 188.996,176.304 188.456,176.941 188.127 C 178.148 187.503,183.690 186.829,187.774 186.811 C 189.410 186.803,190.715 186.520,191.974 185.900 C 193.637 185.080,194.371 185.000,200.200 185.000 C 206.119 185.000,206.714 185.068,208.123 185.900 C 209.335 186.616,210.274 186.804,212.723 186.820 C 218.487 186.859,224.344 187.472,225.371 188.144 C 225.909 188.497,227.216 188.976,228.275 189.210 C 229.334 189.443,231.857 190.437,233.882 191.417 C 235.907 192.398,237.887 193.204,238.282 193.209 C 238.677 193.215,240.080 193.664,241.400 194.208 C 244.374 195.433,247.237 195.503,249.393 194.404 C 250.252 193.966,251.595 193.503,252.378 193.376 C 254.135 193.090,256.792 191.745,257.617 190.724 C 258.049 190.189,259.298 189.776,261.780 189.348 C 263.731 189.011,265.753 188.456,266.275 188.114 C 269.156 186.226,309.743 186.291,312.639 188.188 C 313.152 188.525,314.376 188.800,315.360 188.800 C 318.052 188.800,322.750 189.903,323.895 190.803 C 324.452 191.241,325.199 191.601,325.554 191.601 C 325.909 191.602,326.741 191.933,327.402 192.336 C 329.688 193.730,330.828 193.682,332.289 192.133 C 334.517 189.771,334.014 186.167,330.592 179.970 C 330.279 179.403,329.915 177.873,329.781 176.570 C 329.518 173.993,329.396 173.702,324.009 162.800 C 318.808 152.276,317.290 149.509,316.215 148.600 C 315.695 148.160,315.141 147.350,314.986 146.800 C 314.653 145.624,312.804 143.280,309.515 139.861 C 308.212 138.508,306.804 136.634,306.386 135.697 C 305.329 133.329,289.379 117.391,287.696 117.021 C 286.976 116.863,285.327 115.615,283.544 113.879 C 280.288 110.710,277.328 108.400,276.522 108.400 C 276.236 108.400,275.326 107.762,274.501 106.982 C 273.675 106.202,272.010 105.084,270.800 104.497 C 269.590 103.910,268.539 103.286,268.465 103.110 C 268.121 102.294,264.782 100.465,262.800 100.007 C 261.590 99.727,260.330 99.276,260.000 99.005 C 259.670 98.734,257.780 97.739,255.800 96.793 C 253.820 95.847,251.655 94.607,250.989 94.037 C 249.443 92.713,247.523 91.808,245.005 91.219 C 243.908 90.962,242.738 90.524,242.405 90.244 C 242.072 89.964,240.947 89.421,239.904 89.036 C 238.861 88.652,237.906 88.171,237.781 87.968 C 237.655 87.766,236.798 87.598,235.876 87.595 C 234.026 87.590,230.225 86.683,229.477 86.068 C 229.215 85.852,227.050 85.480,224.667 85.241 C 221.476 84.922,220.036 84.595,219.205 84.004 C 217.462 82.763,186.926 82.817,184.909 84.065 M219.432 84.816 C 220.424 85.296,222.656 85.795,224.858 86.031 C 226.916 86.250,229.479 86.799,230.554 87.250 C 231.629 87.700,233.519 88.172,234.754 88.299 C 236.197 88.446,238.536 89.220,241.297 90.464 C 243.660 91.529,245.883 92.400,246.236 92.400 C 247.198 92.400,249.666 93.609,250.800 94.635 C 252.166 95.871,261.869 100.738,263.600 101.055 C 264.921 101.296,266.912 102.419,267.800 103.423 C 268.020 103.671,269.280 104.467,270.600 105.191 C 271.920 105.914,273.676 107.112,274.501 107.853 C 275.327 108.594,276.194 109.200,276.429 109.200 C 277.177 109.200,280.107 111.428,283.200 114.351 C 284.850 115.910,286.390 117.188,286.621 117.192 C 288.533 117.227,305.950 134.674,305.995 136.600 C 306.000 136.820,307.038 138.083,308.302 139.407 C 311.365 142.615,313.348 145.098,314.206 146.800 C 314.594 147.570,315.436 148.803,316.077 149.539 C 316.719 150.275,317.757 151.895,318.383 153.139 C 319.010 154.383,320.935 158.191,322.661 161.603 C 327.329 170.829,328.288 173.092,329.011 176.591 C 329.372 178.340,329.960 180.317,330.317 180.985 C 335.539 190.762,332.879 194.775,324.258 190.122 C 322.579 189.215,319.378 188.377,316.200 188.012 C 314.660 187.836,312.590 187.355,311.600 186.945 C 308.592 185.700,271.498 185.814,267.194 187.082 C 265.547 187.568,262.835 188.311,261.167 188.734 C 259.094 189.259,257.534 189.961,256.237 190.951 C 255.044 191.862,253.899 192.400,253.156 192.400 C 252.506 192.400,251.085 192.850,250.000 193.400 C 247.381 194.727,244.587 194.727,241.200 193.400 C 239.797 192.850,238.409 192.400,238.116 192.400 C 237.823 192.400,236.102 191.704,234.292 190.853 C 232.481 190.002,230.280 189.083,229.400 188.810 C 228.520 188.536,226.818 187.940,225.618 187.484 C 223.411 186.646,218.302 186.056,212.940 186.019 C 210.760 186.005,209.570 185.763,207.940 185.004 C 204.811 183.547,196.150 183.515,192.569 184.947 C 190.693 185.697,189.118 185.947,185.000 186.149 C 181.624 186.315,178.958 186.672,177.400 187.168 C 176.080 187.588,173.650 188.242,172.000 188.621 C 170.350 189.000,168.460 189.630,167.800 190.021 C 164.997 191.680,156.387 195.200,155.129 195.200 C 154.386 195.200,152.463 194.570,150.856 193.800 C 149.249 193.030,147.428 192.400,146.808 192.400 C 146.125 192.400,144.886 191.803,143.666 190.887 C 142.199 189.784,140.803 189.174,138.526 188.641 C 136.807 188.238,134.320 187.565,133.000 187.145 C 131.295 186.603,128.804 186.307,124.400 186.124 C 119.129 185.905,117.884 185.727,116.089 184.933 C 112.934 183.539,106.265 183.573,103.038 185.000 C 101.237 185.797,100.109 186.003,97.489 186.012 C 93.302 186.028,88.881 186.600,87.150 187.350 C 86.407 187.672,84.360 188.250,82.600 188.635 C 80.840 189.019,78.035 190.014,76.366 190.845 C 72.095 192.971,69.742 193.231,68.329 191.734 L 67.259 190.600 69.069 185.400 C 70.064 182.540,71.018 179.570,71.188 178.800 C 71.357 178.030,71.880 176.530,72.348 175.467 C 72.817 174.404,73.200 173.236,73.200 172.871 C 73.200 171.878,82.750 152.891,83.974 151.450 C 84.558 150.762,85.647 149.171,86.395 147.913 C 87.142 146.655,88.574 144.771,89.577 143.726 C 90.579 142.681,91.689 141.184,92.042 140.399 C 93.619 136.894,115.416 115.125,119.091 113.385 C 119.921 112.992,121.466 111.824,122.525 110.788 C 123.583 109.753,125.520 108.297,126.829 107.553 C 128.137 106.809,129.775 105.708,130.468 105.108 C 131.784 103.966,132.937 103.346,144.400 97.615 C 151.366 94.133,153.263 93.313,158.600 91.481 C 160.140 90.952,162.570 90.108,164.000 89.604 C 165.430 89.100,167.500 88.520,168.600 88.315 C 169.700 88.110,171.770 87.603,173.200 87.188 C 174.630 86.773,177.383 86.240,179.317 86.003 C 181.251 85.767,183.681 85.238,184.717 84.828 C 187.749 83.627,216.955 83.617,219.432 84.816 M243.600 85.575 C 243.930 85.811,245.301 86.349,246.646 86.772 C 247.991 87.195,249.789 87.914,250.640 88.370 C 251.492 88.827,252.571 89.200,253.038 89.200 C 253.506 89.200,254.511 89.622,255.271 90.138 C 256.031 90.654,257.132 91.197,257.716 91.343 C 258.301 91.490,259.439 92.058,260.245 92.605 C 261.052 93.152,262.036 93.600,262.432 93.600 C 262.829 93.600,263.277 93.800,263.428 94.045 C 263.579 94.290,264.535 94.857,265.552 95.304 C 266.568 95.751,267.850 96.461,268.400 96.881 C 270.242 98.289,272.995 99.985,273.451 99.993 C 273.699 99.997,274.137 100.283,274.424 100.629 C 274.711 100.975,275.589 101.608,276.373 102.036 C 277.158 102.464,278.610 103.437,279.600 104.199 C 280.590 104.961,281.940 105.883,282.600 106.248 C 284.095 107.076,286.771 109.141,289.533 111.600 C 292.528 114.266,295.571 116.880,297.200 118.186 C 300.236 120.621,301.706 122.066,304.120 124.990 C 305.397 126.536,307.377 128.868,308.520 130.174 C 309.664 131.480,311.050 133.077,311.600 133.724 C 312.150 134.371,312.960 135.292,313.400 135.773 C 313.840 136.253,315.047 137.912,316.083 139.460 C 317.119 141.008,318.244 142.504,318.583 142.786 C 318.922 143.068,319.200 143.434,319.200 143.601 C 319.200 144.098,321.962 148.529,322.467 148.841 C 322.724 149.000,323.309 149.868,323.767 150.769 C 328.674 160.428,330.000 163.132,330.000 163.482 C 330.000 163.707,330.332 164.321,330.738 164.846 C 331.430 165.740,331.924 166.998,334.208 173.664 C 335.591 177.704,335.973 178.190,335.988 175.931 C 335.997 174.509,335.761 173.777,335.000 172.873 C 334.306 172.049,334.000 171.205,334.000 170.120 C 334.000 169.075,333.665 168.101,332.990 167.187 C 332.435 166.434,331.874 165.150,331.743 164.334 C 331.613 163.519,331.077 162.448,330.553 161.956 C 330.029 161.463,329.597 160.687,329.593 160.230 C 329.589 159.774,329.049 158.608,328.393 157.640 C 327.737 156.672,327.200 155.557,327.200 155.163 C 327.200 154.770,327.017 154.334,326.792 154.195 C 326.568 154.057,325.893 153.040,325.292 151.936 C 323.076 147.863,322.845 147.507,322.076 146.968 C 321.645 146.666,321.171 145.940,321.024 145.355 C 320.752 144.268,319.299 142.082,317.823 140.539 C 317.371 140.065,316.460 138.746,315.800 137.608 C 314.507 135.380,311.660 132.027,308.848 129.423 C 307.884 128.530,306.649 127.096,306.102 126.236 C 304.759 124.121,300.259 119.479,298.241 118.127 C 297.338 117.523,295.183 115.672,293.450 114.014 C 291.718 112.356,289.730 110.460,289.034 109.800 C 288.337 109.140,286.993 108.150,286.047 107.600 C 285.100 107.050,283.186 105.655,281.793 104.500 C 280.399 103.345,278.892 102.400,278.443 102.400 C 277.995 102.400,277.097 101.905,276.448 101.300 C 273.715 98.752,273.284 98.437,272.170 98.173 C 271.526 98.020,270.593 97.525,270.096 97.074 C 269.032 96.108,266.980 94.831,264.200 93.406 C 263.100 92.843,261.750 92.118,261.200 91.797 C 260.650 91.475,259.913 91.209,259.562 91.206 C 259.211 91.203,258.596 90.837,258.195 90.394 C 257.793 89.951,256.787 89.479,255.958 89.347 C 255.129 89.214,254.048 88.677,253.556 88.153 C 252.901 87.456,252.229 87.200,251.056 87.200 C 249.961 87.200,249.159 86.925,248.529 86.333 C 247.865 85.709,246.961 85.421,245.303 85.306 C 243.590 85.186,243.154 85.255,243.600 85.575 M122.539 102.377 C 121.428 103.465,119.997 104.484,119.360 104.641 C 118.177 104.933,117.946 105.110,114.196 108.600 C 113.014 109.700,111.021 111.224,109.768 111.986 C 106.764 113.812,93.285 127.213,91.256 130.389 C 90.901 130.945,90.383 131.638,90.105 131.929 C 89.827 132.219,89.600 132.598,89.600 132.771 C 89.600 132.943,88.745 133.959,87.700 135.028 C 85.293 137.490,83.200 140.397,83.200 141.276 C 83.200 141.649,82.842 142.206,82.403 142.513 C 81.363 143.241,79.380 145.991,79.004 147.228 C 78.841 147.762,78.336 148.607,77.880 149.104 C 76.866 150.213,75.481 152.450,74.444 154.656 C 74.016 155.567,73.485 156.424,73.264 156.561 C 73.043 156.697,72.749 157.323,72.611 157.951 C 72.473 158.578,72.022 159.455,71.608 159.899 C 71.194 160.343,70.662 161.426,70.425 162.307 C 70.188 163.187,69.724 164.131,69.393 164.406 C 69.062 164.680,68.502 165.916,68.147 167.152 C 67.792 168.389,67.164 169.722,66.751 170.116 C 66.257 170.587,66.000 171.387,66.000 172.458 C 66.000 173.609,65.708 174.432,65.000 175.273 C 64.249 176.165,63.998 176.927,63.993 178.331 C 63.987 179.737,63.690 180.636,62.793 181.960 C 61.842 183.363,61.600 184.149,61.600 185.830 C 61.600 187.496,61.390 188.188,60.600 189.127 C 59.636 190.273,58.938 199.195,59.887 198.246 C 60.283 197.851,61.557 191.701,61.581 190.074 C 61.591 189.345,61.957 187.905,62.393 186.874 C 62.829 185.843,63.456 183.920,63.786 182.600 C 64.465 179.884,66.396 174.206,67.051 173.000 C 67.289 172.560,67.701 171.316,67.965 170.235 C 68.228 169.154,68.794 167.825,69.222 167.281 C 69.650 166.737,70.000 166.107,70.000 165.882 C 70.000 165.090,76.339 152.868,78.164 150.142 C 80.342 146.887,80.800 146.121,80.800 145.727 C 80.800 145.491,81.090 145.057,81.445 144.763 C 81.799 144.468,82.774 143.141,83.610 141.814 C 85.050 139.527,85.796 138.528,87.908 136.061 C 88.407 135.477,89.745 133.740,90.881 132.200 C 93.194 129.065,108.537 113.661,111.200 111.800 C 112.145 111.140,114.123 109.610,115.597 108.400 C 117.070 107.190,119.043 105.750,119.979 105.200 C 120.916 104.650,122.273 103.705,122.994 103.100 C 123.715 102.495,124.479 102.000,124.691 102.000 C 124.903 102.000,125.402 101.640,125.800 101.200 C 127.522 99.297,124.611 100.348,122.539 102.377 M5.470 143.063 C 5.059 143.474,6.014 144.400,6.849 144.400 C 7.333 144.400,7.600 144.116,7.600 143.600 C 7.600 142.811,6.101 142.433,5.470 143.063 M392.400 143.600 C 392.400 144.530,393.654 144.699,394.348 143.863 C 394.908 143.188,394.537 142.800,393.333 142.800 C 392.667 142.800,392.400 143.029,392.400 143.600 M3.273 151.226 C 3.448 152.991,4.943 154.028,5.584 152.829 C 6.024 152.008,5.441 150.026,4.915 150.552 C 4.794 150.673,4.346 150.585,3.920 150.357 C 3.219 149.982,3.157 150.066,3.273 151.226 M396.019 150.384 C 395.700 150.584,395.304 150.664,395.139 150.562 C 394.533 150.188,393.951 151.961,394.403 152.805 C 395.181 154.260,397.031 152.699,396.732 150.839 C 396.634 150.235,396.448 150.116,396.019 150.384 M1.700 159.887 C 0.634 160.270,1.085 163.556,2.243 163.847 C 3.363 164.128,4.149 163.429,3.796 162.467 C 3.688 162.174,3.600 161.596,3.600 161.181 C 3.600 160.357,2.493 159.603,1.700 159.887 M397.088 160.127 C 395.511 161.392,396.031 164.280,397.757 163.847 C 398.682 163.614,398.800 163.387,398.800 161.835 C 398.800 159.959,398.131 159.291,397.088 160.127 M0.000 176.000 C 0.000 179.131,0.661 180.381,1.357 178.567 C 2.059 176.738,1.513 172.800,0.557 172.800 C 0.127 172.800,0.000 173.531,0.000 176.000 M398.643 173.433 C 397.941 175.262,398.487 179.200,399.443 179.200 C 399.873 179.200,400.000 178.469,400.000 176.000 C 400.000 172.869,399.339 171.619,398.643 173.433 M336.000 178.762 C 336.000 179.061,336.513 180.856,337.141 182.753 C 337.769 184.649,338.502 187.460,338.771 189.000 C 339.040 190.540,339.429 192.610,339.635 193.600 C 341.177 201.009,340.699 204.972,338.485 203.126 C 337.897 202.636,334.600 200.868,330.200 198.685 C 326.980 197.087,324.470 196.051,323.200 195.795 C 322.430 195.640,321.260 195.191,320.600 194.796 C 319.940 194.401,318.680 193.887,317.800 193.654 L 316.200 193.230 317.438 194.354 C 318.186 195.033,319.358 195.587,320.397 195.753 C 321.344 195.905,322.656 196.481,323.313 197.034 C 324.204 197.783,324.787 197.979,325.600 197.800 C 326.406 197.623,326.993 197.813,327.846 198.528 C 328.481 199.061,329.566 199.620,330.259 199.771 C 330.951 199.922,331.824 200.385,332.200 200.800 C 332.576 201.215,333.449 201.678,334.141 201.829 C 334.834 201.980,335.909 202.530,336.531 203.052 C 337.153 203.573,338.086 204.000,338.605 204.000 C 339.123 204.000,340.006 204.174,340.567 204.387 C 342.652 205.180,343.282 199.751,341.400 197.200 C 340.487 195.962,340.400 195.489,340.400 191.753 C 340.400 187.907,340.336 187.586,339.336 186.397 C 338.480 185.379,338.252 184.660,338.170 182.709 C 338.077 180.503,336.000 176.724,336.000 178.762 M99.200 190.015 C 98.430 190.192,95.370 190.771,92.400 191.301 C 89.430 191.832,86.460 192.544,85.800 192.885 C 85.140 193.226,83.809 193.637,82.843 193.797 C 81.877 193.958,80.167 194.518,79.043 195.041 C 77.919 195.564,76.750 195.994,76.444 195.996 C 76.138 195.998,75.148 196.354,74.244 196.786 C 73.340 197.218,71.970 197.844,71.200 198.178 C 70.430 198.511,69.530 198.963,69.200 199.182 C 68.870 199.401,67.970 199.867,67.200 200.218 C 64.604 201.399,62.485 202.596,61.655 203.349 C 60.140 204.723,59.461 203.939,59.698 201.092 C 59.813 199.721,59.811 198.870,59.694 199.200 C 59.577 199.530,59.058 200.309,58.540 200.931 C 56.860 202.951,57.512 205.799,59.523 205.222 C 61.187 204.745,62.907 203.787,63.727 202.881 C 64.126 202.440,65.070 201.963,65.826 201.821 C 66.582 201.680,67.642 201.122,68.182 200.582 C 68.776 199.987,69.625 199.600,70.333 199.600 C 71.099 199.600,71.707 199.292,72.094 198.709 C 72.553 198.017,73.108 197.804,74.569 197.754 C 75.918 197.709,76.727 197.433,77.423 196.779 C 78.116 196.128,79.028 195.814,80.610 195.683 C 82.265 195.545,82.973 195.289,83.407 194.668 C 83.898 193.967,84.544 193.804,87.563 193.619 C 90.579 193.434,91.291 193.254,92.129 192.467 L 93.121 191.535 110.061 191.501 L 127.000 191.467 128.556 192.534 C 129.760 193.359,130.591 193.600,132.232 193.600 C 136.663 193.600,134.826 192.552,128.400 191.415 C 126.310 191.045,123.290 190.486,121.689 190.171 C 118.492 189.544,101.748 189.427,99.200 190.015 M277.800 190.440 C 275.820 190.869,272.943 191.401,271.407 191.622 C 265.411 192.484,263.936 193.600,268.793 193.600 C 271.192 193.600,271.701 193.464,272.821 192.521 L 274.104 191.441 287.552 191.512 C 298.391 191.570,312.123 191.092,306.400 190.857 C 305.630 190.826,303.740 190.533,302.200 190.207 C 297.787 189.272,282.513 189.418,277.800 190.440 M188.000 190.400 C 187.450 190.576,186.280 190.763,185.400 190.815 C 184.372 190.875,184.990 191.024,187.130 191.231 C 188.962 191.407,190.717 191.765,191.030 192.025 C 192.082 192.898,191.863 324.838,190.808 325.793 C 190.372 326.187,189.905 327.098,189.770 327.817 C 189.562 328.927,186.126 332.927,184.178 334.328 C 183.970 334.478,183.440 335.031,183.000 335.558 L 182.200 336.516 183.200 335.996 C 186.317 334.376,190.119 329.466,192.180 324.400 L 193.400 321.400 193.481 257.400 C 193.526 222.200,193.479 193.000,193.376 192.511 C 192.940 190.426,190.684 189.540,188.000 190.400 M207.970 191.032 L 207.000 192.064 206.800 258.332 L 206.600 324.600 205.135 328.600 C 204.329 330.800,203.152 333.500,202.518 334.600 C 201.884 335.700,201.014 337.210,200.583 337.955 C 199.344 340.099,195.176 344.273,192.786 345.764 C 191.584 346.514,190.269 347.429,189.865 347.799 C 189.461 348.168,188.471 348.742,187.665 349.075 C 186.859 349.408,185.930 349.918,185.600 350.210 C 185.270 350.501,183.830 351.033,182.400 351.390 C 176.908 352.765,177.145 352.625,179.738 352.963 C 181.801 353.231,182.182 353.169,182.963 352.434 C 183.451 351.976,184.754 351.333,185.859 351.005 C 186.965 350.676,188.196 350.046,188.596 349.604 C 188.997 349.162,189.553 348.800,189.833 348.800 C 190.113 348.800,190.684 348.365,191.101 347.834 C 191.519 347.303,192.477 346.611,193.231 346.296 C 195.031 345.544,199.038 341.858,200.033 340.039 C 200.466 339.247,201.536 337.610,202.410 336.400 C 203.284 335.190,203.999 333.823,203.999 333.362 C 204.000 332.901,204.353 332.204,204.785 331.814 C 205.753 330.938,206.553 328.627,206.267 327.533 C 206.051 326.708,206.702 324.800,207.200 324.800 C 208.347 324.800,208.400 321.849,208.400 257.630 C 208.400 202.227,208.484 192.428,208.961 192.032 C 210.411 190.829,216.080 191.033,218.000 192.358 C 219.608 193.467,220.087 193.594,222.489 193.544 C 224.827 193.495,225.359 193.626,226.562 194.544 C 227.557 195.303,228.425 195.600,229.648 195.600 C 230.814 195.600,231.624 195.859,232.225 196.423 C 232.707 196.876,234.009 197.486,235.120 197.779 C 236.230 198.072,237.546 198.691,238.045 199.156 C 238.543 199.620,239.312 200.000,239.754 200.000 C 240.196 200.000,241.240 200.473,242.074 201.051 C 243.936 202.342,247.039 202.263,248.513 200.887 C 249.001 200.432,249.940 199.929,250.600 199.769 C 251.260 199.609,252.328 199.040,252.973 198.504 C 253.830 197.791,254.445 197.589,255.258 197.752 C 256.064 197.913,256.676 197.716,257.485 197.036 C 258.098 196.520,259.594 195.891,260.810 195.639 C 262.224 195.346,263.197 194.896,263.513 194.390 C 264.220 193.259,263.030 193.328,260.725 194.554 C 259.739 195.078,258.317 195.638,257.566 195.797 C 256.815 195.957,255.570 196.411,254.800 196.806 C 254.030 197.202,251.656 198.351,249.525 199.360 L 245.650 201.193 243.252 200.447 C 241.933 200.037,240.368 199.318,239.773 198.850 C 239.179 198.383,238.401 197.999,238.046 197.999 C 237.691 197.998,236.772 197.614,236.005 197.147 C 234.411 196.175,232.498 195.474,224.200 192.821 C 222.880 192.399,220.180 191.767,218.200 191.418 C 216.220 191.068,213.731 190.606,212.669 190.391 C 209.765 189.803,209.031 189.903,207.970 191.032 M180.800 191.626 C 175.611 192.600,174.178 193.809,178.542 193.531 C 180.580 193.402,181.338 193.155,182.372 192.285 C 183.738 191.135,183.637 191.093,180.800 191.626 M308.864 192.231 C 309.657 193.035,310.444 193.360,311.948 193.505 C 316.089 193.903,316.128 192.795,312.000 191.995 C 310.790 191.760,309.350 191.475,308.800 191.360 L 307.800 191.151 308.864 192.231 M136.561 194.369 C 137.812 195.363,138.485 195.600,140.058 195.600 C 141.637 195.600,142.170 195.789,142.875 196.600 C 143.353 197.150,144.153 197.600,144.653 197.600 C 145.705 197.600,147.600 198.389,147.600 198.827 C 147.600 198.991,148.440 199.411,149.467 199.761 C 150.494 200.111,151.662 200.694,152.063 201.057 C 153.395 202.263,156.582 202.260,158.326 201.051 C 159.160 200.473,160.123 200.000,160.466 200.000 C 160.808 200.000,161.764 199.541,162.590 198.981 C 163.416 198.420,164.656 197.856,165.346 197.728 C 166.036 197.600,167.050 197.089,167.600 196.592 C 168.317 195.946,169.249 195.640,170.891 195.513 C 172.731 195.371,173.378 195.124,174.176 194.264 L 175.169 193.193 174.084 193.454 C 171.186 194.154,164.019 197.028,161.200 198.621 C 155.842 201.649,154.583 201.498,145.525 196.750 C 144.713 196.325,143.273 195.725,142.325 195.417 C 141.376 195.110,139.880 194.599,139.000 194.282 C 135.351 192.968,134.822 192.987,136.561 194.369 M0.000 224.171 C 0.000 226.555,0.124 227.200,0.582 227.200 C 1.847 227.200,1.960 221.513,0.700 221.274 C 0.083 221.157,0.000 221.502,0.000 224.171 M398.667 221.467 C 397.886 222.248,398.559 227.200,399.447 227.200 C 399.869 227.200,400.000 226.488,400.000 224.200 C 400.000 221.325,399.609 220.524,398.667 221.467 M1.200 238.227 C 1.200 239.982,1.242 240.048,2.298 239.927 C 4.311 239.695,4.366 236.400,2.357 236.400 C 1.250 236.400,1.200 236.479,1.200 238.227 M396.318 236.900 C 395.877 238.211,396.604 239.800,397.702 239.927 C 398.758 240.048,398.800 239.982,398.800 238.227 C 398.800 236.393,396.840 235.346,396.318 236.900 M4.100 247.212 C 3.466 247.467,3.202 247.903,3.206 248.687 C 3.211 249.553,3.298 249.667,3.600 249.200 C 3.817 248.864,3.990 248.804,3.994 249.063 C 4.003 249.756,5.499 249.230,5.698 248.463 C 6.082 246.982,5.604 246.608,4.100 247.212 M394.298 247.300 C 394.006 248.169,394.446 249.119,395.237 249.326 C 395.661 249.437,396.003 249.320,396.006 249.063 C 396.010 248.804,396.183 248.864,396.400 249.200 C 396.702 249.667,396.789 249.554,396.794 248.690 C 396.798 247.864,396.538 247.481,395.774 247.190 C 394.486 246.700,394.501 246.699,394.298 247.300 M6.032 256.038 C 5.431 256.278,5.206 256.566,5.439 256.799 C 5.959 257.319,7.600 256.828,7.600 256.153 C 7.600 255.518,7.374 255.501,6.032 256.038 M392.400 256.153 C 392.400 256.827,394.041 257.319,394.558 256.802 C 394.788 256.572,394.512 256.271,393.839 256.015 C 392.448 255.486,392.400 255.490,392.400 256.153 M137.581 311.140 C 137.294 311.235,136.470 311.904,135.748 312.625 L 134.437 313.936 134.318 319.686 L 134.200 325.435 135.331 326.785 L 136.461 328.134 136.233 326.767 C 136.108 326.015,135.735 323.780,135.404 321.800 C 134.506 316.426,135.092 313.652,137.386 312.409 C 137.834 312.167,138.650 311.707,139.200 311.388 L 140.200 310.808 139.151 310.887 C 138.574 310.930,137.867 311.044,137.581 311.140 M144.232 311.460 C 144.909 311.867,145.749 312.380,146.099 312.600 C 146.449 312.820,147.214 313.810,147.798 314.800 L 148.861 316.600 148.615 315.116 C 148.292 313.165,146.325 311.193,144.433 310.924 L 143.000 310.721 144.232 311.460 M149.023 320.200 C 149.178 322.061,149.584 323.916,149.992 324.633 C 150.378 325.310,150.904 326.504,151.162 327.284 C 151.419 328.065,151.983 329.023,152.415 329.414 C 152.847 329.804,153.200 330.297,153.200 330.508 C 153.200 331.778,161.899 338.400,163.568 338.400 C 164.585 338.400,162.924 336.784,161.665 336.548 C 160.926 336.410,159.754 335.761,159.061 335.107 C 154.946 331.227,153.200 329.410,153.200 329.007 C 153.200 328.756,152.825 328.148,152.367 327.656 C 151.284 326.495,150.800 324.740,150.800 321.980 C 150.800 320.220,150.586 319.467,149.778 318.378 L 148.756 317.000 149.023 320.200 M136.406 329.851 C 136.402 330.876,136.640 331.702,137.034 332.028 C 137.383 332.318,137.938 333.229,138.268 334.054 C 138.598 334.878,139.316 335.846,139.863 336.205 C 141.008 336.955,140.642 335.848,139.200 334.200 C 138.815 333.760,138.205 332.500,137.844 331.400 C 136.846 328.356,136.413 327.890,136.406 329.851 M178.079 337.300 C 177.240 338.140,176.746 338.214,170.690 338.403 C 164.991 338.581,164.444 338.655,166.200 339.003 C 170.812 339.918,178.614 338.896,181.282 337.027 C 182.160 336.413,182.145 336.400,180.578 336.400 C 179.452 336.400,178.712 336.666,178.079 337.300 M140.800 337.945 C 140.800 339.817,150.275 348.800,152.250 348.800 C 152.379 348.800,152.989 349.224,153.605 349.743 C 154.221 350.262,155.439 350.800,156.311 350.939 C 157.183 351.079,158.137 351.483,158.432 351.838 C 159.287 352.868,160.790 353.251,162.765 352.943 C 164.541 352.665,164.561 352.647,163.400 352.359 C 158.744 351.207,156.646 350.340,150.819 347.163 C 148.841 346.085,143.271 340.586,141.941 338.400 C 141.099 337.015,140.800 336.896,140.800 337.945 M166.063 353.301 C 166.511 353.467,167.334 353.962,167.893 354.401 C 168.639 354.989,169.515 355.200,171.200 355.200 C 172.885 355.200,173.761 354.989,174.507 354.401 C 175.066 353.962,175.889 353.467,176.337 353.301 C 176.786 353.136,174.474 353.000,171.200 353.000 C 167.926 353.000,165.614 353.136,166.063 353.301 M142.933 393.600 C 142.933 395.015,143.484 395.175,143.966 393.900 C 144.352 392.879,144.185 392.400,143.443 392.400 C 143.143 392.400,142.933 392.894,142.933 393.600 M255.871 392.700 C 255.622 393.122,256.302 394.800,256.720 394.800 C 256.911 394.800,257.067 394.260,257.067 393.600 C 257.067 392.499,256.320 391.937,255.871 392.700 M150.712 395.620 C 150.548 396.734,150.623 396.830,151.566 396.720 C 153.061 396.546,153.344 394.400,151.872 394.400 C 151.084 394.400,150.856 394.640,150.712 395.620 M247.273 395.500 C 247.371 396.344,247.640 396.628,248.434 396.720 C 249.377 396.830,249.452 396.734,249.288 395.620 C 249.035 393.894,247.075 393.777,247.273 395.500 M160.230 396.876 C 159.751 398.416,160.105 398.842,161.764 398.720 C 163.204 398.614,163.395 398.483,163.397 397.600 C 163.400 396.458,160.562 395.809,160.230 396.876 M236.661 396.701 C 236.021 397.737,236.714 398.603,238.277 398.720 C 239.804 398.834,239.879 398.786,239.841 397.720 C 239.799 396.586,237.240 395.765,236.661 396.701 M173.500 398.667 C 171.574 399.195,172.861 400.000,175.629 400.000 C 178.108 400.000,178.442 399.913,178.326 399.300 C 178.191 398.592,175.205 398.200,173.500 398.667 M221.867 398.667 C 220.944 399.590,221.723 400.000,224.400 400.000 C 226.517 400.000,227.200 399.865,227.200 399.447 C 227.200 398.568,222.633 397.900,221.867 398.667 " stroke="none" fill="#d4a13e" fill-rule="evenodd"></path><path id="path4" d="M184.717 84.828 C 183.681 85.238,181.251 85.767,179.317 86.003 C 177.383 86.240,174.630 86.773,173.200 87.188 C 171.770 87.603,169.700 88.110,168.600 88.315 C 167.500 88.520,165.430 89.100,164.000 89.604 C 162.570 90.108,160.140 90.952,158.600 91.481 C 153.263 93.313,151.366 94.133,144.400 97.615 C 132.937 103.346,131.784 103.966,130.468 105.108 C 129.775 105.708,128.137 106.809,126.829 107.553 C 125.520 108.297,123.583 109.753,122.525 110.788 C 121.466 111.824,119.921 112.992,119.091 113.385 C 115.416 115.125,93.619 136.894,92.042 140.399 C 91.689 141.184,90.579 142.681,89.577 143.726 C 88.574 144.771,87.142 146.655,86.395 147.913 C 85.647 149.171,84.558 150.762,83.974 151.450 C 82.750 152.891,73.200 171.878,73.200 172.871 C 73.200 173.236,72.817 174.404,72.348 175.467 C 71.880 176.530,71.357 178.030,71.188 178.800 C 71.018 179.570,70.064 182.540,69.069 185.400 L 67.259 190.600 68.329 191.734 C 69.742 193.231,72.095 192.971,76.366 190.845 C 78.035 190.014,80.840 189.019,82.600 188.635 C 84.360 188.250,86.407 187.672,87.150 187.350 C 88.881 186.600,93.302 186.028,97.489 186.012 C 100.109 186.003,101.237 185.797,103.038 185.000 C 106.265 183.573,112.934 183.539,116.089 184.933 C 117.884 185.727,119.129 185.905,124.400 186.124 C 128.804 186.307,131.295 186.603,133.000 187.145 C 134.320 187.565,136.807 188.238,138.526 188.641 C 140.803 189.174,142.199 189.784,143.666 190.887 C 144.886 191.803,146.125 192.400,146.808 192.400 C 147.428 192.400,149.249 193.030,150.856 193.800 C 152.463 194.570,154.386 195.200,155.129 195.200 C 156.387 195.200,164.997 191.680,167.800 190.021 C 168.460 189.630,170.350 189.000,172.000 188.621 C 173.650 188.242,176.080 187.588,177.400 187.168 C 178.958 186.672,181.624 186.315,185.000 186.149 C 189.118 185.947,190.693 185.697,192.569 184.947 C 196.150 183.515,204.811 183.547,207.940 185.004 C 209.570 185.763,210.760 186.005,212.940 186.019 C 218.302 186.056,223.411 186.646,225.618 187.484 C 226.818 187.940,228.520 188.536,229.400 188.810 C 230.280 189.083,232.481 190.002,234.292 190.853 C 236.102 191.704,237.823 192.400,238.116 192.400 C 238.409 192.400,239.797 192.850,241.200 193.400 C 244.587 194.727,247.381 194.727,250.000 193.400 C 251.085 192.850,252.506 192.400,253.156 192.400 C 253.899 192.400,255.044 191.862,256.237 190.951 C 257.534 189.961,259.094 189.259,261.167 188.734 C 262.835 188.311,265.547 187.568,267.194 187.082 C 271.498 185.814,308.592 185.700,311.600 186.945 C 312.590 187.355,314.660 187.836,316.200 188.012 C 319.378 188.377,322.579 189.215,324.258 190.122 C 332.879 194.775,335.539 190.762,330.317 180.985 C 329.960 180.317,329.372 178.340,329.011 176.591 C 328.288 173.092,327.329 170.829,322.661 161.603 C 320.935 158.191,319.010 154.383,318.383 153.139 C 317.757 151.895,316.719 150.275,316.077 149.539 C 315.436 148.803,314.594 147.570,314.206 146.800 C 313.348 145.098,311.365 142.615,308.302 139.407 C 307.038 138.083,306.000 136.820,305.995 136.600 C 305.950 134.674,288.533 117.227,286.621 117.192 C 286.390 117.188,284.850 115.910,283.200 114.351 C 280.107 111.428,277.177 109.200,276.429 109.200 C 276.194 109.200,275.327 108.594,274.501 107.853 C 273.676 107.112,271.920 105.914,270.600 105.191 C 269.280 104.467,268.020 103.671,267.800 103.423 C 266.912 102.419,264.921 101.296,263.600 101.055 C 261.869 100.738,252.166 95.871,250.800 94.635 C 249.666 93.609,247.198 92.400,246.236 92.400 C 245.883 92.400,243.660 91.529,241.297 90.464 C 238.536 89.220,236.197 88.446,234.754 88.299 C 233.519 88.172,231.629 87.700,230.554 87.250 C 229.479 86.799,226.916 86.250,224.858 86.031 C 222.656 85.795,220.424 85.296,219.432 84.816 C 216.955 83.617,187.749 83.627,184.717 84.828 M219.045 86.572 C 219.408 87.519,221.519 88.000,225.314 88.000 C 228.634 88.000,228.979 88.076,229.835 89.000 C 230.597 89.823,231.138 90.001,232.881 90.004 C 235.954 90.011,238.000 90.422,238.000 91.034 C 238.000 91.570,240.313 92.394,241.830 92.398 C 242.287 92.399,243.083 92.850,243.600 93.400 C 244.314 94.160,244.944 94.400,246.227 94.400 C 247.551 94.400,248.193 94.659,249.200 95.600 C 249.907 96.260,250.782 96.800,251.146 96.800 C 251.510 96.800,252.027 97.151,252.295 97.580 C 252.563 98.009,253.431 98.482,254.223 98.631 C 255.016 98.780,256.063 99.299,256.550 99.786 C 257.037 100.273,258.192 100.792,259.118 100.940 C 260.152 101.106,260.800 101.422,260.800 101.762 C 260.800 102.450,261.672 102.800,263.387 102.800 C 264.355 102.800,264.883 103.067,265.363 103.800 C 265.724 104.350,266.264 104.800,266.563 104.800 C 266.863 104.800,267.397 105.242,267.751 105.781 C 268.147 106.386,268.947 106.866,269.836 107.033 C 270.814 107.217,271.876 107.912,273.139 109.197 C 274.432 110.513,275.451 111.173,276.477 111.359 C 277.429 111.532,278.041 111.900,278.198 112.393 C 278.332 112.815,278.798 113.272,279.234 113.411 C 279.671 113.549,280.987 114.594,282.160 115.731 C 284.846 118.337,287.128 120.000,288.018 120.000 C 288.397 120.000,288.804 120.373,288.924 120.830 C 289.043 121.286,289.497 121.753,289.933 121.867 C 290.369 121.981,290.819 122.431,290.933 122.867 C 291.047 123.303,291.508 123.755,291.957 123.873 C 292.406 123.990,292.885 124.438,293.021 124.868 C 293.158 125.297,293.704 125.847,294.235 126.089 C 294.766 126.330,295.200 126.773,295.200 127.073 C 295.200 127.372,295.635 127.815,296.166 128.057 C 296.697 128.299,297.224 128.849,297.336 129.278 C 297.449 129.708,297.908 130.155,298.357 130.273 C 298.806 130.390,299.285 130.837,299.421 131.266 C 299.557 131.695,300.103 132.211,300.634 132.413 C 301.165 132.615,301.600 133.034,301.600 133.344 C 301.600 133.654,302.050 134.203,302.600 134.563 C 303.214 134.966,303.600 135.595,303.600 136.194 C 303.600 136.839,304.380 137.977,305.900 139.552 C 309.169 142.938,310.400 144.363,310.400 144.760 C 310.400 144.951,310.760 145.201,311.200 145.316 C 311.739 145.457,312.000 145.862,312.000 146.556 C 312.000 147.516,312.415 148.113,315.300 151.302 C 315.945 152.015,316.400 152.979,316.400 153.631 C 316.400 154.715,317.283 156.000,318.029 156.000 C 318.233 156.000,318.400 156.458,318.400 157.018 C 318.400 157.578,318.824 158.460,319.342 158.978 C 319.860 159.497,320.399 160.496,320.540 161.200 C 320.681 161.904,321.247 163.016,321.798 163.671 C 322.349 164.325,322.800 165.227,322.800 165.673 C 322.800 166.119,323.250 167.019,323.800 167.673 C 324.379 168.361,324.800 169.365,324.800 170.057 C 324.800 171.519,325.440 172.800,326.170 172.800 C 326.565 172.800,326.754 173.622,326.866 175.830 C 326.994 178.364,327.161 178.969,327.889 179.530 C 328.503 180.003,328.841 180.834,329.038 182.354 C 329.237 183.887,329.589 184.743,330.259 185.326 C 331.409 186.326,331.660 190.249,330.599 190.656 C 329.691 191.004,328.000 190.460,328.000 189.819 C 328.000 189.209,327.476 188.991,325.000 188.572 C 324.120 188.423,322.981 187.918,322.469 187.451 C 321.682 186.733,320.934 186.578,317.676 186.458 C 314.212 186.331,313.723 186.218,312.926 185.358 L 312.038 184.400 289.945 184.400 L 267.852 184.400 266.898 185.296 C 266.137 186.011,265.305 186.239,262.774 186.425 C 260.362 186.602,259.387 186.853,258.702 187.476 C 258.206 187.927,257.307 188.411,256.705 188.554 C 256.103 188.696,255.317 189.260,254.959 189.806 C 254.398 190.663,254.008 190.800,252.136 190.800 C 250.352 190.800,249.785 190.979,248.964 191.800 C 247.510 193.253,243.654 193.253,241.927 191.800 C 241.067 191.077,240.268 190.800,239.039 190.800 C 237.763 190.800,237.115 190.561,236.438 189.841 C 235.879 189.245,234.866 188.781,233.769 188.616 C 232.796 188.470,232.000 188.187,232.000 187.986 C 232.000 187.321,229.667 186.400,227.984 186.400 C 226.749 186.400,226.143 186.171,225.600 185.500 C 224.899 184.633,224.595 184.595,217.336 184.476 L 209.800 184.352 208.959 183.302 C 207.388 181.342,193.878 181.439,191.735 183.426 C 190.716 184.370,190.493 184.400,184.572 184.400 C 178.721 184.400,178.413 184.440,177.331 185.351 C 176.406 186.130,175.641 186.331,173.125 186.458 C 170.703 186.580,169.854 186.791,169.125 187.454 C 168.616 187.917,167.660 188.420,167.000 188.572 C 166.340 188.724,165.527 189.201,165.192 189.632 C 164.783 190.161,163.877 190.500,162.413 190.673 C 160.873 190.855,159.989 191.202,159.375 191.865 C 158.041 193.304,152.497 193.261,151.036 191.800 C 150.215 190.979,149.648 190.800,147.864 190.800 C 145.992 190.800,145.602 190.663,145.041 189.806 C 144.683 189.260,143.897 188.696,143.295 188.554 C 142.693 188.411,141.794 187.927,141.298 187.476 C 140.613 186.853,139.638 186.602,137.226 186.425 C 134.695 186.239,133.863 186.011,133.102 185.296 C 132.190 184.439,131.846 184.400,125.189 184.400 L 118.230 184.400 117.389 183.346 C 115.823 181.382,104.275 181.442,102.135 183.426 C 101.109 184.376,100.920 184.400,94.522 184.400 C 88.038 184.400,87.951 184.412,87.035 185.400 C 86.268 186.227,85.736 186.400,83.954 186.402 C 81.336 186.405,78.955 187.020,78.668 187.768 C 78.551 188.072,77.696 188.449,76.767 188.606 C 75.778 188.773,74.711 189.287,74.193 189.846 C 73.484 190.610,72.904 190.800,71.278 190.800 C 68.806 190.800,68.500 190.417,69.769 188.910 C 70.468 188.079,70.825 187.030,71.033 185.191 C 71.239 183.366,71.550 182.445,72.113 181.989 C 72.661 181.545,72.966 180.683,73.108 179.175 C 73.247 177.693,73.613 176.640,74.256 175.869 C 74.931 175.061,75.200 174.241,75.200 172.992 C 75.200 171.675,75.405 171.102,76.034 170.661 C 76.496 170.337,77.039 169.314,77.253 168.363 C 77.465 167.420,77.989 166.403,78.418 166.103 C 78.859 165.793,79.308 164.865,79.452 163.964 C 79.602 163.026,80.007 162.210,80.436 161.981 C 80.837 161.766,81.290 160.917,81.442 160.095 C 81.593 159.273,82.141 158.204,82.659 157.719 C 83.245 157.170,83.600 156.382,83.600 155.628 C 83.600 154.779,83.898 154.223,84.600 153.763 C 85.150 153.403,85.600 152.869,85.600 152.577 C 85.600 152.284,85.931 151.810,86.337 151.523 C 87.258 150.869,88.000 149.500,88.000 148.453 C 88.000 148.005,88.352 147.542,88.800 147.400 C 89.240 147.260,89.600 146.979,89.600 146.774 C 89.600 146.569,90.230 145.734,91.000 144.918 C 91.770 144.101,92.400 143.299,92.400 143.135 C 92.400 142.971,92.850 142.386,93.400 141.836 C 93.950 141.286,94.400 140.549,94.400 140.198 C 94.400 139.467,95.431 138.367,106.299 127.499 C 117.017 116.781,118.270 115.600,118.924 115.600 C 119.561 115.600,122.082 113.790,123.615 112.232 C 124.173 111.664,124.853 111.200,125.125 111.200 C 125.397 111.200,125.791 110.750,126.000 110.200 C 126.263 109.509,126.683 109.200,127.359 109.200 C 127.898 109.200,128.847 108.777,129.469 108.259 C 130.091 107.742,131.005 107.106,131.500 106.845 C 131.995 106.585,132.400 106.128,132.400 105.830 C 132.400 105.528,133.019 105.173,133.799 105.027 C 134.568 104.882,135.674 104.322,136.257 103.782 C 136.840 103.242,137.722 102.800,138.216 102.800 C 138.711 102.800,139.540 102.353,140.058 101.807 C 140.576 101.261,141.324 100.811,141.720 100.807 C 142.632 100.798,144.800 99.691,144.800 99.234 C 144.800 99.044,145.398 98.777,146.129 98.640 C 146.860 98.503,148.065 97.943,148.806 97.395 C 149.548 96.848,150.662 96.400,151.280 96.400 C 151.982 96.400,152.733 96.024,153.275 95.400 C 153.947 94.627,154.530 94.400,155.841 94.400 C 157.039 94.400,157.872 94.122,158.669 93.456 C 159.426 92.824,160.492 92.447,161.893 92.315 C 163.263 92.187,164.513 91.753,165.514 91.059 C 166.794 90.173,167.477 90.000,169.706 90.000 C 171.952 90.000,172.500 89.859,173.207 89.100 C 173.953 88.299,174.538 88.178,178.523 87.998 C 182.725 87.808,184.800 87.248,184.800 86.304 C 184.800 85.677,218.804 85.944,219.045 86.572 " stroke="none" fill="#146c8c" fill-rule="evenodd"></path></g></svg>