<?xml version="1.0" encoding="UTF-8"?>
<svg version="1.1" xmlns="http://www.w3.org/2000/svg" width="188" height="188">
<path d="M0 0 C2.76623007 2.21144298 5.42528382 4.49509549 8.0546875 6.8671875 C8.83585938 7.56585937 9.61703125 8.26453125 10.421875 8.984375 C25.76910292 23.4819294 37.01139405 45.44199287 38.21582031 66.71289062 C38.62116258 95.04914315 33.67334143 119.1204084 14.0546875 140.8671875 C13.35601562 141.64835938 12.65734375 142.42953125 11.9375 143.234375 C-2.5600544 158.58160292 -24.52011787 169.82389405 -45.79101562 171.02832031 C-74.12726815 171.43366258 -98.1985334 166.48584143 -119.9453125 146.8671875 C-120.72648437 146.16851562 -121.50765625 145.46984375 -122.3125 144.75 C-137.65972792 130.2524456 -148.90201905 108.29238213 -150.10644531 87.02148438 C-150.51178758 58.68523185 -145.56396643 34.6139666 -125.9453125 12.8671875 C-124.89730469 11.69542969 -124.89730469 11.69542969 -123.828125 10.5 C-92.18599203 -22.99661696 -37.01320543 -26.802666 0 0 Z " fill="#003E5B" transform="translate(149.9453125,17.1328125)"/>
<path d="M0 0 C1.67542976 0.28604898 3.34385343 0.61781233 5 1 C5.495 3.475 5.495 3.475 6 6 C7.175625 6.12375 8.35125 6.2475 9.5625 6.375 C27.79497579 8.29420798 44.38067089 19.30304251 56 33 C61.92857233 41.17046943 66.83231957 49.82576909 68.1875 59.9375 C68.34605469 61.08089844 68.50460938 62.22429687 68.66796875 63.40234375 C68.77753906 64.25957031 68.88710937 65.11679688 69 66 C65.98259388 65.47080905 63.82236 64.90929021 61.0625 63.5 C53.27362673 59.68504166 41.56162774 59.76492463 33.1328125 61.63671875 C31.70430704 62.12972148 30.28702557 62.65903403 28.89453125 63.24609375 C24.10064172 65.15376525 21.28619916 65.07443505 16.5 63.125 C12.98517722 61.71314703 9.71997236 60.6976897 6 60 C6.01332367 60.78181137 6.02664734 61.56362274 6.04037476 62.36912537 C6.16103308 69.76846176 6.25216565 77.16731538 6.31087303 84.56738186 C6.34207123 88.37111614 6.38432752 92.17403173 6.45263672 95.97729492 C6.51824878 99.65376284 6.55379243 103.32944778 6.56926346 107.00645638 C6.58027576 108.40305965 6.60177999 109.79962426 6.63438034 111.19589043 C6.83347784 120.08373423 6.22778716 126.32764964 0 133 C-4.5973014 136.75747941 -9.01130445 136.61722832 -14.76171875 136.48046875 C-19.72618068 135.74388393 -22.69737464 133.70063406 -26 130 C-28.98031318 125.62266502 -29.41175926 122.24993056 -29 117 C-28 116 -28 116 -25.4375 115.9375 C-24.633125 115.958125 -23.82875 115.97875 -23 116 C-22.74605469 116.61488281 -22.49210937 117.22976562 -22.23046875 117.86328125 C-21.88628906 118.67152344 -21.54210937 119.47976562 -21.1875 120.3125 C-20.85105469 121.11300781 -20.51460937 121.91351563 -20.16796875 122.73828125 C-18.99066451 125.01807776 -18.01613424 126.42411344 -16 128 C-11.02230936 128.55307674 -7.99616107 128.05588788 -4 125 C-2.63317926 122.26635853 -2.83734537 120.04962521 -2.79467773 116.98974609 C-2.77473251 115.72858978 -2.75478729 114.46743347 -2.73423767 113.1680603 C-2.71725335 111.78652063 -2.70037454 110.40497966 -2.68359375 109.0234375 C-2.6630244 107.61381418 -2.64202793 106.20419703 -2.62062073 104.79458618 C-2.56539805 101.08252965 -2.51598969 97.37041743 -2.46777344 93.65826416 C-2.41755982 89.87108397 -2.36187303 86.08398474 -2.30664062 82.296875 C-2.19905667 74.86465188 -2.09761227 67.43236148 -2 60 C-3.42296084 60.2929514 -4.84458287 60.59240981 -6.265625 60.89453125 C-7.05743164 61.06057861 -7.84923828 61.22662598 -8.66503906 61.39770508 C-10.86158673 61.96429679 -12.7116002 62.70767193 -14.75 63.6875 C-19.95541186 65.78968556 -23.03605873 63.98557651 -28 62 C-39.07103471 59.24216161 -49.68279197 60.50876783 -60 65 C-61.3255762 65.36295539 -62.65713868 65.70740407 -64 66 C-65.27998357 52.94416758 -57.563167 41.06433904 -49.78515625 31.1875 C-41.02053515 20.95974117 -30.53530871 13.93499695 -18 9 C-16.989375 8.5875 -15.97875 8.175 -14.9375 7.75 C-10.67362145 6.66135016 -6.38040929 6.32896354 -2 6 C-1.855625 5.195625 -1.71125 4.39125 -1.5625 3.5625 C-1 1 -1 1 0 0 Z " fill="#FEA501" transform="translate(92,30)"/>
<path d="M0 0 C1.67542976 0.28604898 3.34385343 0.61781233 5 1 C5.495 3.475 5.495 3.475 6 6 C7.175625 6.12375 8.35125 6.2475 9.5625 6.375 C27.79497579 8.29420798 44.38067089 19.30304251 56 33 C61.92857233 41.17046943 66.83231957 49.82576909 68.1875 59.9375 C68.34605469 61.08089844 68.50460938 62.22429687 68.66796875 63.40234375 C68.77753906 64.25957031 68.88710937 65.11679688 69 66 C65.98259388 65.47080905 63.82236 64.90929021 61.0625 63.5 C53.27362673 59.68504166 41.56162774 59.76492463 33.1328125 61.63671875 C31.70430704 62.12972148 30.28702557 62.65903403 28.89453125 63.24609375 C24.10064172 65.15376525 21.28619916 65.07443505 16.5 63.125 C12.98517722 61.71314703 9.71997236 60.6976897 6 60 C6.01332367 60.78181137 6.02664734 61.56362274 6.04037476 62.36912537 C6.16103308 69.76846176 6.25216565 77.16731538 6.31087303 84.56738186 C6.34207123 88.37111614 6.38432752 92.17403173 6.45263672 95.97729492 C6.51824878 99.65376284 6.55379243 103.32944778 6.56926346 107.00645638 C6.58027576 108.40305965 6.60177999 109.79962426 6.63438034 111.19589043 C6.83347784 120.08373423 6.22778716 126.32764964 0 133 C-4.5973014 136.75747941 -9.01130445 136.61722832 -14.76171875 136.48046875 C-19.72618068 135.74388393 -22.69737464 133.70063406 -26 130 C-28.98031318 125.62266502 -29.41175926 122.24993056 -29 117 C-28 116 -28 116 -25.4375 115.9375 C-24.633125 115.958125 -23.82875 115.97875 -23 116 C-22.74605469 116.61488281 -22.49210937 117.22976562 -22.23046875 117.86328125 C-21.88628906 118.67152344 -21.54210937 119.47976562 -21.1875 120.3125 C-20.85105469 121.11300781 -20.51460937 121.91351563 -20.16796875 122.73828125 C-18.99066451 125.01807776 -18.01613424 126.42411344 -16 128 C-11.02230936 128.55307674 -7.99616107 128.05588788 -4 125 C-2.63317926 122.26635853 -2.83734537 120.04962521 -2.79467773 116.98974609 C-2.77473251 115.72858978 -2.75478729 114.46743347 -2.73423767 113.1680603 C-2.71725335 111.78652063 -2.70037454 110.40497966 -2.68359375 109.0234375 C-2.6630244 107.61381418 -2.64202793 106.20419703 -2.62062073 104.79458618 C-2.56539805 101.08252965 -2.51598969 97.37041743 -2.46777344 93.65826416 C-2.41755982 89.87108397 -2.36187303 86.08398474 -2.30664062 82.296875 C-2.19905667 74.86465188 -2.09761227 67.43236148 -2 60 C-3.42296084 60.2929514 -4.84458287 60.59240981 -6.265625 60.89453125 C-7.05743164 61.06057861 -7.84923828 61.22662598 -8.66503906 61.39770508 C-10.86158673 61.96429679 -12.7116002 62.70767193 -14.75 63.6875 C-19.95541186 65.78968556 -23.03605873 63.98557651 -28 62 C-39.07103471 59.24216161 -49.68279197 60.50876783 -60 65 C-61.3255762 65.36295539 -62.65713868 65.70740407 -64 66 C-65.27998357 52.94416758 -57.563167 41.06433904 -49.78515625 31.1875 C-41.02053515 20.95974117 -30.53530871 13.93499695 -18 9 C-16.989375 8.5875 -15.97875 8.175 -14.9375 7.75 C-10.67362145 6.66135016 -6.38040929 6.32896354 -2 6 C-1.855625 5.195625 -1.71125 4.39125 -1.5625 3.5625 C-1 1 -1 1 0 0 Z M-40 27 C-40.71027344 27.62777344 -41.42054687 28.25554688 -42.15234375 28.90234375 C-49.49830626 35.7971147 -58.72466846 47.2246374 -59.09765625 57.7578125 C-59.06542969 58.49773437 -59.03320312 59.23765625 -59 60 C-57.51113281 59.65775391 -57.51113281 59.65775391 -55.9921875 59.30859375 C-45.52857379 57.04009474 -34.78993364 55.38483557 -24.5625 59.625 C-20.4243152 61.22219413 -18.26469939 61.04605834 -14 60 C-13.25492188 59.66871094 -12.50984375 59.33742187 -11.7421875 58.99609375 C-2.38804081 55.59821995 9.6243635 56.18285829 18.6875 60.1875 C22.04949369 61.36874103 24.55667327 60.73785573 28 60 C28.67546875 59.6596875 29.3509375 59.319375 30.046875 58.96875 C34.57605785 57.48298631 39.01584442 57.71212676 43.75 57.75 C44.70132813 57.74226563 45.65265625 57.73453125 46.6328125 57.7265625 C52.71988396 57.74323941 58.10684535 58.47214509 64 60 C61.29297405 44.74221737 52.4295452 32.21221414 40 23 C36.74564535 20.84431548 33.41644312 18.88644692 30 17 C29.33097656 16.6184375 28.66195312 16.236875 27.97265625 15.84375 C4.91583579 3.39589601 -21.22765521 10.26053181 -40 27 Z " fill="#EBECEB" transform="translate(92,30)"/>
<path d="M0 0 C2.49229904 1.26434148 3.69915333 1.8328196 6.484375 1.4140625 C8.78427637 0.61306237 11.00864927 -0.29840899 13.25 -1.25 C21.76754343 -4.15444968 33.04865275 -4.65145329 41.25 -0.625 C45.08949977 1.13477073 47.18552204 0.71069479 51.25 -0.25 C52.53583984 -0.76046875 52.53583984 -0.76046875 53.84765625 -1.28125 C58.33145799 -2.55792375 62.48690402 -2.57972918 67.125 -2.5625 C67.98480469 -2.57861328 68.84460938 -2.59472656 69.73046875 -2.61132812 C75.55360038 -2.61574628 80.03095328 -1.92431965 85.25 0.75 C86.82023984 3.66400278 86.87263986 6.49526881 87.25 9.75 C85.99316406 9.42644531 84.73632812 9.10289063 83.44140625 8.76953125 C77.99982269 7.56537727 72.74345399 7.41840737 67.1875 7.4375 C66.24583984 7.42138672 65.30417969 7.40527344 64.33398438 7.38867188 C58.23053417 7.38442452 53.86053236 8.38236794 48.25 10.75 C45.36209001 10.54372072 43.25689428 9.75256045 40.546875 8.74609375 C30.91588061 5.8362554 17.34514947 5.09769981 8.1328125 9.83984375 C5.05944063 11.32551937 2.50360907 10.43497033 -0.75 9.75 C-1.513125 9.42 -2.27625 9.09 -3.0625 8.75 C-13.5248783 4.85702203 -25.26822282 7.04343782 -35.75 9.75 C-35.66445796 4.53193535 -35.66445796 4.53193535 -34.75 1.75 C-32.14642252 0.08814203 -30.65101166 -0.53933169 -27.75 -1.25 C-26.64591797 -1.57097656 -26.64591797 -1.57097656 -25.51953125 -1.8984375 C-17.04779987 -4.02673543 -7.84105208 -4.13263129 0 0 Z " fill="#DB6607" transform="translate(68.75,80.25)"/>
<path d="M0 0 C1.0209375 0.495 1.0209375 0.495 2.0625 1 C2.0625 1.33 2.0625 1.66 2.0625 2 C0.4125 2 -1.2375 2 -2.9375 2 C-2.92417633 2.79433945 -2.91085266 3.58867889 -2.89712524 4.40708923 C-2.77647835 11.92415609 -2.68533995 19.44074799 -2.62662697 26.95853329 C-2.59542584 30.82279484 -2.55316378 34.68625082 -2.48486328 38.55004883 C-2.41926227 42.28487018 -2.38370976 46.01892098 -2.36823654 49.75427437 C-2.35722233 51.17320435 -2.3357143 52.59209618 -2.30311966 54.0106945 C-2.1060116 62.95183298 -2.64849617 69.29358911 -8.9375 76 C-13.5348014 79.75747941 -17.94880445 79.61722832 -23.69921875 79.48046875 C-28.66368068 78.74388393 -31.63487464 76.70063406 -34.9375 73 C-37.91781318 68.62266502 -38.34925926 65.24993056 -37.9375 60 C-36.9375 59 -36.9375 59 -34.375 58.9375 C-33.570625 58.958125 -32.76625 58.97875 -31.9375 59 C-31.68355469 59.61488281 -31.42960937 60.22976562 -31.16796875 60.86328125 C-30.65169922 62.07564453 -30.65169922 62.07564453 -30.125 63.3125 C-29.78855469 64.11300781 -29.45210937 64.91351563 -29.10546875 65.73828125 C-27.92816451 68.01807776 -26.95363424 69.42411344 -24.9375 71 C-21.11715826 71.42448242 -18.65041489 71.31685106 -15.125 69.75 C-12.73783189 67.84026551 -12.03146993 66.81753674 -10.9375 64 C-10.61086716 61.09073811 -10.61086716 61.09073811 -10.61865234 57.85449219 C-10.59878265 56.61350769 -10.57891296 55.37252319 -10.55844116 54.09393311 C-10.54656576 52.74491555 -10.53490285 51.39589611 -10.5234375 50.046875 C-10.50472093 48.66252494 -10.48514715 47.27818622 -10.4647522 45.89385986 C-10.41347638 42.25747373 -10.37382654 38.62105063 -10.33660889 34.98449707 C-10.29654055 31.27082203 -10.24546116 27.55730017 -10.1953125 23.84375 C-10.09860717 16.56260518 -10.01418537 9.28138611 -9.9375 2 C-11.2575 1.67 -12.5775 1.34 -13.9375 1 C-9.47076368 -1.85871124 -4.91642298 -1.67367591 0 0 Z " fill="#F4F5F6" transform="translate(100.9375,87)"/>
<path d="M0 0 C14.82983948 8.98253572 25.81639392 21.80824535 32 38 C32.47576034 40.29738816 32.87585614 42.61215736 33.1875 44.9375 C33.34605469 46.08089844 33.50460938 47.22429687 33.66796875 48.40234375 C33.77753906 49.25957031 33.88710937 50.11679688 34 51 C30.98259388 50.47080905 28.82236 49.90929021 26.0625 48.5 C18.27362673 44.68504166 6.56162774 44.76492463 -1.8671875 46.63671875 C-3.29569296 47.12972148 -4.71297443 47.65903403 -6.10546875 48.24609375 C-10.89935828 50.15376525 -13.71380084 50.07443505 -18.5 48.125 C-22.0047439 46.71719557 -25.27160757 45.63490741 -29 45 C-27.375 43.4375 -27.375 43.4375 -25 42 C-21.82420796 42.20271013 -19.44957708 42.79250288 -16.5625 44.125 C-13.05321191 45.32329349 -10.5946918 44.7702911 -7 44 C-6.32453125 43.66097656 -5.6490625 43.32195312 -4.953125 42.97265625 C-0.42456352 41.48110624 4.01382853 41.67171276 8.75 41.6875 C9.70132813 41.67138672 10.65265625 41.65527344 11.6328125 41.63867188 C17.95685319 41.63434034 23.14633428 42.599125 29 45 C22.94493998 25.82564327 12.79442387 12.82549247 -5 3 C-5.66902344 2.6184375 -6.33804688 2.236875 -7.02734375 1.84375 C-12.41712273 -1.06606933 -18.06878614 -2.5608084 -24 -4 C-24 -4.33 -24 -4.66 -24 -5 C-15.29177822 -8.36454023 -7.9491943 -4.03868604 0 0 Z " fill="#EEECE9" transform="translate(127,45)"/>
<path d="M0 0 C6.56989247 0.75806452 6.56989247 0.75806452 9 2.125 C12.16402397 3.50926049 14.68949035 2.6969494 18 2 C18.86625 1.649375 19.7325 1.29875 20.625 0.9375 C23.3083381 -0.12171241 25.13954553 -0.30110047 28 0 C28.99 0.66 29.98 1.32 31 2 C31.36076355 4.5942688 31.36076355 4.5942688 31.34057617 7.91845703 C31.34023628 9.78016037 31.34023628 9.78016037 31.33988953 11.67947388 C31.32456848 13.03892372 31.30892047 14.39836991 31.29296875 15.7578125 C31.28737427 17.1450047 31.28310347 18.53220283 31.28010559 19.91940308 C31.26864497 23.57249281 31.23916786 27.22522534 31.20599365 30.87817383 C31.17531867 34.60493131 31.16160579 38.33174645 31.14648438 42.05859375 C31.11429886 49.37255877 31.06308839 56.68622936 31 64 C30.67 64 30.34 64 30 64 C30 43.87 30 23.74 30 3 C21.73220472 4.5181142 21.73220472 4.5181142 17.25 6.6875 C13.72246135 8.11208292 12.52360361 8.20544334 9 7 C7.97712891 6.51466797 7.97712891 6.51466797 6.93359375 6.01953125 C2.90201131 4.61840873 -1.07989401 4.28255953 -5.3125 3.875 C-6.14845703 3.78863281 -6.98441406 3.70226562 -7.84570312 3.61328125 C-9.8964763 3.40234458 -11.94815903 3.20028354 -14 3 C-14 2.67 -14 2.34 -14 2 C-9.38 2 -4.76 2 0 2 C0 1.34 0 0.68 0 0 Z " fill="#C2C5C9" transform="translate(60,87)"/>
<path d="M0 0 C0 0.66 0 1.32 0 2 C-6.6 2.33 -13.2 2.66 -20 3 C-19.67 2.01 -19.34 1.02 -19 0 C-12.46837378 -1.10914408 -6.56492112 -0.78441153 0 0 Z " fill="#FBF7F6" transform="translate(60,87)"/>
<path d="M0 0 C0 0.66 0 1.32 0 2 C-2.12392506 2.6700834 -4.24917524 3.33596797 -6.375 4 C-7.55835937 4.37125 -8.74171875 4.7425 -9.9609375 5.125 C-13 6 -13 6 -15 6 C-14.34 4.35 -13.68 2.7 -13 1 C-8.61414671 0.29826347 -4.44209357 -0.10834375 0 0 Z " fill="#F8F4F0" transform="translate(87,38)"/>
<path d="M0 0 C0 3.63 0 7.26 0 11 C-1.32 10.67 -2.64 10.34 -4 10 C-4.66 10.66 -5.32 11.32 -6 12 C-5.10164835 4.21428571 -5.10164835 4.21428571 -3 1 C-1 0 -1 0 0 0 Z " fill="#E6E5E2" transform="translate(34,80)"/>
<path d="M0 0 C0.99 0.66 1.98 1.32 3 2 C2.34 2.66 1.68 3.32 1 4 C-1.8125 3.6875 -1.8125 3.6875 -5 3 C-5.94875 2.814375 -6.8975 2.62875 -7.875 2.4375 C-8.57625 2.293125 -9.2775 2.14875 -10 2 C-10 1.67 -10 1.34 -10 1 C-3.57884427 -1.48090108 -3.57884427 -1.48090108 0 0 Z " fill="#EEE7DA" transform="translate(113,39)"/>
<path d="M0 0 C1.65 0.33 3.3 0.66 5 1 C4.67 1.99 4.34 2.98 4 4 C-1.94 3.67 -7.88 3.34 -14 3 C-14 2.67 -14 2.34 -14 2 C-9.38 2 -4.76 2 0 2 C0 1.34 0 0.68 0 0 Z " fill="#CACED2" transform="translate(60,87)"/>
<path d="M0 0 C2.4375 0.4375 2.4375 0.4375 5.4375 3.4375 C-0.5025 3.9325 -0.5025 3.9325 -6.5625 4.4375 C-2.5625 0.4375 -2.5625 0.4375 0 0 Z " fill="#F0EDEC" transform="translate(85.5625,86.5625)"/>
<path d="M0 0 C0.66 0.66 1.32 1.32 2 2 C-0.97 2.66 -3.94 3.32 -7 4 C-7 2.68 -7 1.36 -7 0 C-3.85179059 -1.04940314 -3.00659136 -1.066855 0 0 Z " fill="#E4DEDE" transform="translate(41,89)"/>
<path d="M0 0 C1.98 0 3.96 0 6 0 C6 0.99 6 1.98 6 3 C3.69 3 1.38 3 -1 3 C-0.67 2.01 -0.34 1.02 0 0 Z " fill="#F7EFED" transform="translate(125,87)"/>
</svg>
